<svg width="90" height="20" viewBox="0 0 90 20" fill="none" xmlns="http://www.w3.org/2000/svg">
<g clip-path="url(#clip0_774_13319)">
<mask id="mask0_774_13319" style="mask-type:luminance" maskUnits="userSpaceOnUse" x="0" y="0" width="90" height="20">
<path d="M0 0H89.6597V19.8491H0V0Z" fill="white"/>
</mask>
<g mask="url(#mask0_774_13319)">
<path d="M38.0042 6.6045C37.942 2.93626 34.9112 0.0131372 31.2353 0.0761967H29.1176C25.4446 0.158521 22.5162 3.16473 22.5378 6.83091L22.6512 13.3215C22.7134 16.9956 25.738 19.9296 29.4201 19.8875H31.5C35.1818 19.8255 38.1219 16.8072 38.0798 13.1328L38.0042 6.6045ZM31.084 15.9253H29.5714C28.1867 15.9254 27.0584 14.8163 27.0378 13.4347L26.9243 6.41582C26.9035 5.0195 28.0209 3.87068 29.4201 3.84978H30.9327C32.3239 3.84918 33.4632 4.95272 33.5042 6.34035L33.5798 13.3592C33.6225 14.7641 32.4925 15.9259 31.084 15.9253Z" fill="#ED3237"/>
<path fill-rule="evenodd" clip-rule="evenodd" d="M7.94118 0.0751953H12.6303V1.50916H15.3529C18.3518 1.52973 20.7777 3.95059 20.7983 6.94312V11.5092C20.7775 14.4955 18.3456 16.9055 15.3529 16.9054H12.6303V19.8639H7.94118V16.9054H5.44538C2.45269 16.9055 0.0207826 14.4955 0 11.5092V6.94312C0.0206112 3.95059 2.44656 1.52973 5.44538 1.50916H7.94118V0.0751953ZM7.94118 4.94312H6.88235C5.42656 4.92206 4.23514 6.094 4.23529 7.54689V10.9054C4.23514 12.3583 5.42656 13.5302 6.88235 13.5092H7.94118V4.94312ZM12.6303 13.5092H13.6891C15.1449 13.5302 16.3363 12.3583 16.3361 10.9054V7.54689C16.3363 6.094 15.1449 4.92206 13.6891 4.94312H12.6303V13.5092Z" fill="#ED3237"/>
<path d="M69.6554 0.0754717L65.9873 8.75472L61.7898 0.0754717H56.7226L63.794 13.9623L61.336 19.7736H66.4033L74.5713 0.0754717H69.6554ZM56.4957 19.7736L49.1974 9.01887L55.7016 0.0754717H50.6344L44.9621 8.60377V0H40.273V19.7736H44.9621V10.2642L51.4663 19.7736H56.4957ZM85.1596 13.7736C85.0059 15.0091 83.9492 15.9338 82.7016 15.9245H81.189C79.8044 15.9245 78.6762 14.8155 78.6554 13.434L78.5419 6.41509C78.5219 5.01911 79.6388 3.87078 81.0377 3.84906H82.5503C83.7586 3.85898 84.7971 4.70687 85.0461 5.88679H89.5461C89.1224 2.53206 86.2409 0.0302937 82.8528 0.0754717H80.7352C77.0622 0.157796 74.1338 3.164 74.1554 6.83019L74.2688 13.3208C74.331 16.9949 77.3556 19.9288 81.0377 19.8868H83.1175C86.5391 19.841 89.3682 17.2136 89.6596 13.8113L85.1596 13.7736Z" fill="#ED3237"/>
</g>
</g>
<defs>
<clipPath id="clip0_774_13319">
<rect width="90" height="20" fill="white"/>
</clipPath>
</defs>
</svg>
