<svg width="82" height="22" viewBox="0 0 82 22" fill="none" xmlns="http://www.w3.org/2000/svg">
<g clip-path="url(#clip0_774_13273)">
<path d="M46.453 7.41445C46.453 5.05149 46.494 2.85149 46.617 0.814453L40.344 1.99593V2.56631L40.959 2.64779C41.41 2.68853 41.697 2.85149 41.861 3.09593C42.025 3.38112 42.148 3.78853 42.23 4.39964C42.312 5.58112 42.394 8.27001 42.353 12.507C42.353 16.7033 42.312 19.3515 42.23 20.37C44.485 20.8589 46.248 21.0626 47.56 21.0626C50.02 21.0626 51.947 20.37 53.341 18.9441C54.735 17.5589 55.473 15.6033 55.473 13.1996C55.473 11.2848 54.94 9.69594 53.874 8.43297C52.808 7.17001 51.455 6.5589 49.856 6.5589C48.79 6.5589 47.683 6.84408 46.453 7.41445ZM46.576 19.9626C46.494 18.6589 46.412 14.7478 46.412 8.35149C46.781 8.22927 47.273 8.14779 47.888 8.14779C48.872 8.14779 49.651 8.63668 50.225 9.65519C50.799 10.6737 51.086 11.8959 51.086 13.4441C51.086 15.3589 50.758 16.907 50.102 18.2108C49.446 19.4737 48.626 20.1256 47.601 20.1256C47.273 20.0441 46.945 20.0033 46.576 19.9626ZM16.81 1.22186H0.410027V2.03668L1.27103 2.11816C1.92703 2.24038 2.37803 2.48482 2.66503 2.85149C2.95203 3.2589 3.11603 3.91075 3.15703 4.80705C3.48503 9.20705 3.48503 13.3219 3.15703 17.1108C3.07503 18.007 2.91103 18.6589 2.66503 19.0663C2.37803 19.4737 1.92703 19.7182 1.27103 19.7996L0.410027 19.9219V20.7367H10.988V19.9219L9.88103 19.8404C9.6109 19.8179 9.34814 19.7414 9.10857 19.6153C8.869 19.4893 8.65758 19.3164 8.48703 19.107C8.20003 18.6996 8.03603 18.0478 7.99503 17.1515C7.87203 15.5219 7.79003 13.6478 7.79003 11.57L10.004 11.6108C11.193 11.6515 12.013 12.5478 12.423 14.3404H13.243V7.69964H12.423C12.013 9.45149 11.234 10.3478 10.004 10.3885L7.79003 10.4293C7.79003 6.7626 7.87203 4.15519 7.99503 2.56631H11.234C13.53 2.56631 15.088 4.03297 15.99 6.96631L16.974 6.68112L16.81 1.22186ZM14.883 13.77C14.883 15.8885 15.498 17.6404 16.687 19.0256C17.876 20.4108 19.639 21.0626 21.853 21.0626C24.067 21.0626 25.871 20.37 27.183 18.9441C28.495 17.5589 29.11 15.807 29.11 13.6885C29.11 11.57 28.495 9.81816 27.306 8.43297C26.117 7.04779 24.354 6.39594 22.14 6.39594C19.926 6.39594 18.122 7.08853 16.81 8.51445C15.498 9.89964 14.883 11.6515 14.883 13.77ZM24.026 9.12556C24.518 10.307 24.723 11.8552 24.723 13.7293C24.723 18.0478 23.821 20.1663 22.058 20.1663C21.156 20.1663 20.459 19.5552 19.967 18.333C19.475 17.1108 19.27 15.5626 19.27 13.7293C19.27 9.45149 20.172 7.33297 21.935 7.33297C22.837 7.29223 23.534 7.90334 24.026 9.12556ZM58.671 19.0256C60.024 20.37 61.746 21.0626 63.796 21.0626C65.067 21.0626 66.174 20.8182 67.158 20.2885C68.142 19.7996 68.921 19.1885 69.454 18.4552L69.044 17.9663C68.142 18.6589 67.117 18.9848 65.928 18.9848C64.288 18.9848 63.017 18.4552 62.156 17.3552C61.254 16.2552 60.844 14.87 60.926 13.0774H69.7C69.7 11.1219 69.208 9.53297 68.183 8.27001C67.158 7.04779 65.723 6.43668 63.878 6.43668C61.582 6.43668 59.819 7.17001 58.548 8.59594C57.277 10.0219 56.662 11.7737 56.662 13.8515C56.662 15.97 57.318 17.6811 58.671 19.0256ZM61.705 8.79964C62.156 7.82186 62.73 7.33297 63.509 7.33297C64.739 7.33297 65.354 8.88112 65.354 12.0182L61.008 12.0996C61.049 10.8774 61.254 9.77742 61.705 8.79964ZM80.729 7.17001C79.622 6.68112 78.228 6.39594 76.547 6.39594C74.825 6.39594 73.472 6.84408 72.447 7.69964C71.422 8.55519 70.889 9.61445 70.889 10.8774C70.889 11.9774 71.217 12.833 71.832 13.4441C72.447 14.0552 73.431 14.5848 74.702 15.033C75.85 15.4404 76.67 15.8478 77.08 16.2145C77.49 16.6219 77.736 17.07 77.736 17.6811C77.736 18.2515 77.531 18.7811 77.08 19.1885C76.67 19.6367 76.096 19.8404 75.358 19.8404C73.554 19.8404 72.201 18.5367 71.258 15.9293L70.561 16.133L70.725 20.207C72.201 20.7774 73.841 21.0626 75.645 21.0626C77.531 21.0626 78.966 20.6552 80.032 19.7996C81.098 18.9848 81.631 17.8033 81.631 16.3367C81.631 15.3589 81.385 14.5441 80.852 13.933C80.319 13.3219 79.458 12.7922 78.228 12.3033C76.875 11.8145 75.932 11.3663 75.44 10.9589C74.948 10.5515 74.702 10.0626 74.702 9.45149C74.702 8.84038 74.866 8.35149 75.235 7.94408C75.604 7.53668 76.055 7.37371 76.629 7.37371C78.269 7.37371 79.458 8.55519 80.196 10.8774L80.893 10.6737L80.729 7.17001ZM41.287 6.80334C40.713 6.51816 40.098 6.39594 39.401 6.39594C38.704 6.39594 38.007 6.68112 37.228 7.25149C36.449 7.82186 35.875 8.59594 35.424 9.65519L35.465 6.39594L29.233 7.61816V8.18853L29.848 8.22927C30.627 8.31075 31.078 8.92186 31.16 10.0219C31.406 12.5478 31.406 15.2367 31.16 18.0885C31.078 19.1885 30.627 19.7589 29.848 19.8811L29.233 19.9626V20.7367H37.925V19.9626L36.818 19.8811C36.039 19.7996 35.588 19.1885 35.506 18.0885C35.26 15.7256 35.219 13.1996 35.424 10.5922C35.67 10.1848 36.203 9.94038 37.023 9.8589C37.843 9.77742 38.786 10.0219 39.77 10.5922L41.287 6.80334Z" fill="#F1F1EA"/>
</g>
<defs>
<clipPath id="clip0_774_13273">
<rect width="82" height="22" fill="white"/>
</clipPath>
</defs>
</svg>
