<svg width="93" height="30" viewBox="0 0 93 30" fill="none" xmlns="http://www.w3.org/2000/svg">
<path d="M26.2762 3.15796C26.2762 5.08231 27.4572 5.87179 28.9825 6.46389L30.6556 7.056C31.6889 7.45074 32.2794 7.84548 32.2794 8.73364C32.2794 9.76982 31.3445 10.2632 30.0651 10.2632C28.7365 10.2632 27.4572 9.76982 26.4238 8.93101V11.0034C27.2603 11.5955 28.5397 12.0396 30.0651 12.0396C32.427 12.0396 34.1984 10.8554 34.1984 8.73364C34.1984 7.056 33.3619 6.06916 31.5413 5.32902L29.6714 4.63823C28.6873 4.29283 28.146 3.94744 28.146 3.10862C28.146 2.17111 28.9825 1.72703 30.1635 1.72703C31.4921 1.72703 32.5746 2.2698 33.5587 3.00993V0.9869C32.6238 0.394793 31.4429 0.0493962 30.1635 0.0493962C28.0476 5.39161e-05 26.2762 1.13493 26.2762 3.15796Z" fill="#F1F1EA"/>
<path d="M85.0778 3.10856C85.0778 5.03291 86.2587 5.82239 87.7841 6.4145L89.4572 7.0066C90.4905 7.40134 91.081 7.79608 91.081 8.68424C91.081 9.72043 90.146 10.2138 88.8667 10.2138C87.5381 10.2138 86.2587 9.72043 85.2254 8.88161V10.954C86.0619 11.5461 87.3413 11.9902 88.8667 11.9902C91.2286 11.9902 93 10.806 93 8.68424C93 7.0066 92.1635 6.01976 90.3429 5.27962L88.473 4.58883C87.4889 4.24344 86.9476 3.89804 86.9476 3.05922C86.9476 2.12172 87.7841 1.67764 88.9651 1.67764C90.2937 1.67764 91.3762 2.2204 92.3603 2.96054V0.937504C91.4254 0.345397 90.2445 0 88.9651 0C86.8492 0 85.0778 1.08553 85.0778 3.10856Z" fill="#F1F1EA"/>
<path d="M73.2682 3.10868C73.2682 5.03303 74.4492 5.82251 75.9746 6.41462L77.6476 7.00672C78.681 7.40146 79.2714 7.7962 79.2714 8.68436C79.2714 9.72055 78.3365 10.214 77.0571 10.214C75.7286 10.214 74.4492 9.72055 73.4159 8.88173V10.9541C74.2524 11.5462 75.5317 11.9903 77.0571 11.9903C79.419 11.9903 81.1905 10.8061 81.1905 8.68436C81.1905 7.00672 80.354 6.01988 78.5333 5.27974L76.6635 4.58895C75.6794 4.24356 75.1381 3.89816 75.1381 3.05934C75.1381 2.12184 75.9746 1.67776 77.1556 1.67776C78.4841 1.67776 79.5667 2.22052 80.5508 2.96066V0.937625C79.6159 0.345518 78.4349 0.0494626 77.1556 0.0494626C75.0397 0.000120308 73.2682 1.08565 73.2682 3.10868Z" fill="#F1F1EA"/>
<path d="M61.8032 0.197781V11.7932H68.7905V10.0169H63.7222V6.41491H68.2492V4.68793H63.7222V1.87542H68.7905V0.148438H61.8032V0.197781Z" fill="#F1F1EA"/>
<path d="M1.86985 6.66162H4.33016C5.60953 6.66162 6.34762 7.30307 6.34762 8.3886C6.34762 9.42479 5.60953 10.1156 4.33016 10.1156H1.86985V6.66162ZM1.86985 1.92476H3.98572C5.31429 1.92476 6.00318 2.41818 6.00318 3.45437C6.00318 4.5399 5.26508 5.03332 3.98572 5.03332H1.86985V1.92476ZM3.8147e-06 0.197781V11.7932H4.42857C6.83968 11.7932 8.31588 10.6583 8.31588 8.43794C8.31588 7.20438 7.52857 6.11885 6.44604 5.77346C7.28254 5.4774 7.97143 4.5399 7.97143 3.30634C7.97143 1.23397 6.44603 0.148438 4.08413 0.148438L3.8147e-06 0.197781Z" fill="#F1F1EA"/>
<path d="M41.1857 0.198242H39.2175V11.7937H41.1857V0.198242Z" fill="#F1F1EA"/>
<path d="M19.8302 0.198242V6.95813C19.8302 9.17854 18.8952 10.2147 17.173 10.2147C15.4508 10.2147 14.5159 9.17854 14.5159 6.95813V0.198242H12.5476V7.1555C12.5476 10.3134 14.4175 11.9417 17.173 11.9417C19.9286 11.9417 21.7984 10.3134 21.7984 7.1555V0.198242H19.8302Z" fill="#F1F1EA"/>
<path d="M54.7175 0.19737V7.59871L46.746 0V11.7928H48.6651V4.24343L56.5873 11.9902V0.19737H54.7175Z" fill="#F1F1EA"/>
<path d="M29.1302 21.2171C29.1302 23.0921 30.3111 23.8816 31.7873 24.4737L33.4603 25.0658C34.4937 25.4605 35.0841 25.8059 35.0841 26.6941C35.0841 27.7303 34.1492 28.2237 32.8698 28.2237C31.5413 28.2237 30.2619 27.7303 29.2286 26.9408V28.9638C30.0651 29.5559 31.3444 30 32.8698 30C35.1825 30 36.954 28.8651 36.954 26.7928C36.954 25.1151 36.1175 24.1283 34.346 23.4868L32.5254 22.8454C31.5905 22.5 31 22.2039 31 21.3158C31 20.3783 31.8365 19.9342 33.0175 19.9342C34.346 19.9342 35.4286 20.4276 36.3635 21.1677V19.1941C35.4286 18.6019 34.2476 18.2566 32.9683 18.2566C30.9016 18.1085 29.1302 19.1941 29.1302 21.2171Z" fill="#F1F1EA"/>
<path d="M43.9905 18.3066H42.0222V29.7047H43.9905V18.3066Z" fill="#F1F1EA"/>
<path d="M8.90636 18.3066H6.9381V29.7047H8.90636V18.3066Z" fill="#F1F1EA"/>
<path d="M51.6175 20.0332H54.0286C56.4397 20.0332 57.7191 21.5628 57.7191 24.0299C57.7191 26.497 56.4397 28.0266 54.0286 28.0266H51.6175V20.0332ZM49.6492 18.3062V29.7042H54.0286C57.4238 29.7042 59.5889 27.4838 59.5889 23.9805C59.5889 20.5266 57.3746 18.2568 54.0286 18.2568H49.6492V18.3062Z" fill="#F1F1EA"/>
<path d="M63.7222 18.3066V29.7047H70.6603V27.9284H65.6413V24.4251H70.1682V22.7474H65.6413V20.0336H70.6603V18.3066H63.7222Z" fill="#F1F1EA"/>
<path d="M78.4349 19.9838H80.6492C81.9286 19.9838 82.6667 20.6746 82.6667 21.7601C82.6667 22.7963 81.9286 23.5365 80.6492 23.5365H78.4349V19.9838ZM76.4667 18.3062V29.7042H78.4349V25.0661H79.8127L83.7984 29.7042H86.0127L81.9286 24.9674C83.7492 24.6713 84.5857 23.5858 84.5857 21.6615C84.5857 19.4411 83.0603 18.2568 80.6984 18.2568L76.4667 18.3062Z" fill="#F1F1EA"/>
<path d="M14.4667 29.7048H16.3365V22.3035L24.2095 29.9022V18.3067H22.3397V25.6094L14.4667 18.1094V29.7048Z" fill="#F1F1EA"/>
</svg>
