<svg width="79" height="28" viewBox="0 0 79 28" fill="none" xmlns="http://www.w3.org/2000/svg">
<g clip-path="url(#clip0_774_13284)">
<mask id="mask0_774_13284" style="mask-type:luminance" maskUnits="userSpaceOnUse" x="0" y="0" width="79" height="28">
<path d="M78.1667 0H0V28H78.1667V0Z" fill="white"/>
</mask>
<g mask="url(#mask0_774_13284)">
<path d="M40.5953 2.56213H37.7354V0.0214844H46.7526V2.55154H43.8928V9.7077H40.5953V2.56213Z" fill="#F1F1EA"/>
<path d="M57.2307 0.0214844V9.71827H53.9333V6.1402H50.9026V9.7077H47.6053V0.0214844H50.9026V3.45135H53.944V0.0214844H57.2307Z" fill="#F1F1EA"/>
<path d="M66.9549 7.25175V9.71827H58.834V0.0214844H66.7734V2.48803H62.0674V3.62073H66.1971V5.97082H62.0674V7.24118H66.9549V7.25175Z" fill="#F1F1EA"/>
<path d="M44.9384 18.2414H47.7984V22.3383C47.2221 22.7405 46.5498 23.0369 45.7922 23.2487C45.0239 23.4604 44.2768 23.5662 43.5405 23.5662C42.4948 23.5662 41.5664 23.3545 40.734 22.9205C39.9016 22.4864 39.2614 21.8936 38.7919 21.1209C38.3223 20.3481 38.0875 19.48 38.0875 18.4955C38.0875 17.5216 38.3223 16.643 38.7919 15.8702C39.2614 15.0974 39.923 14.5046 40.7553 14.0706C41.5984 13.6366 42.5481 13.4248 43.6045 13.4248C44.565 13.4248 45.4187 13.5836 46.1764 13.9012C46.934 14.2187 47.5636 14.6846 48.0651 15.288L45.9736 17.1511C45.3546 16.4419 44.629 16.0819 43.7859 16.0819C43.0603 16.0819 42.4841 16.3043 42.0573 16.7277C41.6304 17.1617 41.417 17.7545 41.417 18.4955C41.417 19.226 41.6304 19.8082 42.0573 20.2528C42.4841 20.6974 43.0497 20.9197 43.754 20.9197C44.1702 20.9197 44.5756 20.8456 44.9492 20.6868V18.2414H44.9384Z" fill="#F1F1EA"/>
<path d="M55.8652 21.6603H52.1517L51.5007 23.354H48.15L52.4184 13.6572H55.6519L59.9203 23.354H56.5162L55.8652 21.6603ZM54.9582 19.3101L54.0084 16.8753L53.0587 19.3101H54.9582Z" fill="#F1F1EA"/>
<path d="M69.0877 20.8133V23.3434H60.1132V21.332L64.5844 16.1767H60.2625V13.6572H68.8742V15.6685L64.403 20.8239H69.0877V20.8133Z" fill="#F1F1EA"/>
<path d="M78.1673 20.8875V23.354H70.0463V13.6572H77.9857V16.1237H73.2795V17.2564H77.4096V19.6065H73.2795V20.8769H78.1673V20.8875Z" fill="#F1F1EA"/>
<path d="M9.18789 0V5.49414H0V23.3528H3.28673V28.0106L9.8602 23.3633H24.8212V18.3138L30.7225 22.4741V17.8586H34.0092V0H9.18789ZM25.2054 12.1528C25.056 12.3327 21.5132 16.6624 17.0099 16.6624C12.5067 16.6624 8.96382 12.3327 8.81445 12.1528C8.66502 11.9728 8.66502 11.6976 8.81445 11.5176C8.96382 11.3376 12.5067 7.00791 17.0099 7.00791C21.5132 7.00791 25.056 11.3376 25.2054 11.5176C25.3548 11.6976 25.3548 11.9728 25.2054 12.1528Z" fill="#F1F1EA"/>
<path d="M17.0114 14.9793C15.2613 14.9793 13.842 13.5714 13.842 11.8353C13.842 10.0992 15.2613 8.68066 17.0114 8.68066C18.7615 8.68066 20.1807 10.0886 20.1807 11.8247C20.1807 13.5608 18.7615 14.9793 17.0114 14.9793Z" fill="#F1F1EA"/>
</g>
</g>
<defs>
<clipPath id="clip0_774_13284">
<rect width="78.1667" height="28" fill="white"/>
</clipPath>
</defs>
</svg>
