<svg width="45" height="30" viewBox="0 0 45 30" fill="none" xmlns="http://www.w3.org/2000/svg">
<g clip-path="url(#clip0_774_13252)">
<path d="M44.2496 9H43.1246C42.8363 9 42.3731 9.375 42.3746 9.75V17.25H39.375V9.75C39.3731 9.375 39 9 38.625 9H37.5C37.125 9 36.748 9.375 36.75 9.75V29.25C36.748 29.625 37.123 30 37.5 30H38.625C38.9981 30 39.3731 29.625 39.375 29.25V19.875H42.3746V29.25C42.3746 29.625 42.7496 30 43.1246 30H44.2496C44.6246 30 44.9981 29.625 44.9996 29.25V9.75C44.9981 9.375 44.6246 9 44.2496 9Z" fill="#F1F1EA"/>
<path d="M28.876 22.5H31.8758C31.8758 22.5 31.8763 29.0219 31.8758 29.25C31.875 29.625 32.2508 30 32.6258 30C33.283 30 33.3757 30 33.7507 30C34.1257 30 34.5 29.625 34.5007 29.25C34.5008 29.1419 34.5 10.572 34.5 10.5C34.5 9.375 34.125 9 33.0007 9C32.4908 9 27.751 9 27.751 9C26.625 9 26.25 9.375 26.2511 10.5C26.2511 10.5 26.2518 29.0219 26.2511 29.25C26.25 29.625 26.6261 30 27.0011 30C27.3761 30 27.7521 30 28.126 30C28.5 30 28.875 29.625 28.876 29.25V22.5ZM28.876 11.625H31.8758V19.875H28.876V11.625Z" fill="#F1F1EA"/>
<path d="M21.8582 30L23.1433 30C23.5716 30 23.9987 29.625 24 29.25V18L21 24L21.0015 29.25C21 29.625 21.4298 30 21.8582 30Z" fill="#F1F1EA"/>
<path d="M23.1433 9H21.8582C21.4298 9 21 9.375 21.0015 9.75V18.75L23.9987 12.75L24 9.75C23.9987 9.375 23.5716 9 23.1433 9Z" fill="#F1F1EA"/>
<path d="M25.5 2.25H19.5V3H25.5V2.25Z" fill="#F1F1EA"/>
<path d="M25.5 1.5C25.5 0.375 25.125 0 24.375 0H20.625C19.875 0 19.5 0.375 19.5 1.5H25.5Z" fill="#F1F1EA"/>
<path d="M25.5 3.75H19.5V4.5H25.5V3.75Z" fill="#F1F1EA"/>
<path d="M19.5 5.25C19.5 6.75 19.875 7.125 20.625 7.125H24.375C25.125 7.125 25.5 6.75 25.5 5.25H19.5Z" fill="#F1F1EA"/>
<path d="M17.9996 9H16.8747C16.5862 9 16.123 9.375 16.1247 9.75V17.25H13.1249V9.75C13.123 9.375 12.7499 9 12.3749 9H11.25C10.875 9 10.498 9.375 10.5 9.75V29.25C10.498 29.625 10.873 30 11.25 30H12.3749C12.748 30 13.123 29.625 13.1249 29.25V19.875H16.1247V29.25C16.1247 29.625 16.4997 30 16.8747 30H17.9996C18.3746 30 18.748 29.625 18.7496 29.25V9.75C18.748 9.375 18.3746 9 17.9996 9Z" fill="#F1F1EA"/>
<path d="M7.49764 9H6.3729C5.99741 9 5.62316 9.375 5.62316 9.75V19.875H2.62421V9.75C2.62242 9.375 2.24742 9 1.87448 9H0.749738C0.372423 9 5.81145e-07 9.375 5.81145e-07 9.75V21C5.81145e-07 22.125 0.372423 22.5 1.49921 22.5H5.62316V27.375H2.62421V26.25C2.62421 25.875 2.24742 25.5 1.87448 25.5H0.749738C0.372423 25.5 0 25.875 0 26.25C0 26.25 0.000552217 28.125 7.37606e-06 28.5C-0.00162714 29.625 0.372423 30 1.49948 30C2.24742 30 6.74816 30 6.74816 30C7.87241 30 8.25 29.625 8.24738 28.5L8.25 9.75C8.25008 9.375 7.87241 9 7.49764 9Z" fill="#F1F1EA"/>
</g>
<defs>
<clipPath id="clip0_774_13252">
<rect width="45" height="30" fill="white"/>
</clipPath>
</defs>
</svg>
