<svg width="40" height="40" viewBox="0 0 40 40" fill="none" xmlns="http://www.w3.org/2000/svg">
<g clip-path="url(#clip0_368_6900)">
<path d="M24.5996 35.4825H22.5126C22.2839 34.55 21.5486 33.8147 20.616 33.586V16.9274C21.7461 16.6503 22.5873 15.6292 22.5873 14.4148C22.5873 12.9882 21.4266 11.8275 20 11.8275C18.5734 11.8275 17.4127 12.9882 17.4127 14.4148C17.4127 15.6292 18.2539 16.6502 19.384 16.9274V33.586C18.4514 33.8147 17.7161 34.5501 17.4874 35.4826H15.4004C14.3361 35.4826 13.4702 36.3485 13.4702 37.4128V39.3841C13.4702 39.7243 13.746 40.0001 14.0862 40.0001H25.9137C26.254 40.0001 26.5298 39.7243 26.5298 39.3841V37.4128C26.5298 36.3484 25.6639 35.4825 24.5996 35.4825ZM18.6448 14.4148C18.6448 13.6675 19.2527 13.0595 20 13.0595C20.7473 13.0595 21.3552 13.6675 21.3552 14.4148C21.3552 15.1621 20.7473 15.77 20 15.77C19.2527 15.77 18.6448 15.1621 18.6448 14.4148ZM20 34.7433C20.5253 34.7433 20.9808 35.0444 21.2057 35.4825H18.7944C19.0191 35.0444 19.4746 34.7433 20 34.7433ZM25.2977 38.768H14.7022V37.4127C14.7022 37.0278 15.0154 36.7146 15.4004 36.7146H24.5996C24.9845 36.7146 25.2977 37.0278 25.2977 37.4127V38.768Z" fill="#BFC188"/>
<path d="M20 0C12.0517 0 5.58521 6.46645 5.58521 14.4148C5.58521 17.5818 6.59366 20.5864 8.50151 23.104C10.3463 25.5382 12.9672 27.357 15.8816 28.225C16.2075 28.322 16.5507 28.1364 16.6479 27.8104C16.745 27.4844 16.5594 27.1414 16.2333 27.0442C13.5682 26.2503 11.1711 24.5869 9.48336 22.3598C7.73921 20.0582 6.81724 17.3109 6.81724 14.4148C6.81724 7.14579 12.731 1.23203 20 1.23203C27.269 1.23203 33.1827 7.14579 33.1827 14.4148C33.1827 17.3109 32.2608 20.0582 30.5166 22.3598C28.829 24.5868 26.4318 26.2503 23.7666 27.0442C23.4406 27.1414 23.255 27.4844 23.3521 27.8104C23.4318 28.0778 23.6768 28.2508 23.9422 28.2508C24.0004 28.2508 24.0597 28.2424 24.1183 28.225C27.0328 27.357 29.6537 25.5382 31.4985 23.104C33.4063 20.5864 34.4148 17.5818 34.4148 14.4148C34.4148 6.46645 27.9483 0 20 0Z" fill="#BFC188"/>
<path d="M20 9.11704C22.9211 9.11704 25.2977 11.4936 25.2977 14.4148C25.2977 15.9121 24.6539 17.3483 23.5312 18.3552C23.2779 18.5824 23.2567 18.9718 23.4839 19.2251C23.6056 19.3608 23.7738 19.4299 23.9427 19.4299C24.0892 19.4299 24.2362 19.378 24.3538 19.2724C25.7367 18.0322 26.5298 16.2616 26.5298 14.4148C26.5298 10.8143 23.6005 7.88501 20 7.88501C16.3995 7.88501 13.4702 10.8143 13.4702 14.4148C13.4702 16.2616 14.2633 18.0322 15.6462 19.2724C15.8995 19.4996 16.2889 19.4784 16.5161 19.2251C16.7433 18.9719 16.7221 18.5824 16.4688 18.3552C15.3461 17.3483 14.7022 15.9121 14.7022 14.4148C14.7022 11.4936 17.0788 9.11704 20 9.11704Z" fill="#BFC188"/>
<path d="M23.9428 24.0616C24.0252 24.0616 24.109 24.0449 24.1893 24.0099C28.0061 22.341 30.4723 18.5747 30.4723 14.4148C30.4723 8.64033 25.7744 3.9425 20 3.9425C14.2255 3.9425 9.52771 8.64033 9.52771 14.4148C9.52771 18.5747 11.9939 22.341 15.8107 24.0099C16.1224 24.146 16.4856 24.0039 16.6219 23.6922C16.7582 23.3805 16.616 23.0172 16.3043 22.881C12.9361 21.4083 10.7597 18.0852 10.7597 14.4148C10.7597 9.31967 14.9049 5.17454 20 5.17454C25.0951 5.17454 29.2402 9.31967 29.2402 14.4148C29.2402 18.0852 27.0639 21.4083 23.6957 22.8811C23.384 23.0173 23.2418 23.3805 23.3781 23.6922C23.4792 23.9237 23.7055 24.0616 23.9428 24.0616Z" fill="#BFC188"/>
</g>
<defs>
<clipPath id="clip0_368_6900">
<rect width="40" height="40" fill="white"/>
</clipPath>
</defs>
</svg>
