<svg width="40" height="40" viewBox="0 0 40 40" fill="none" xmlns="http://www.w3.org/2000/svg">
<g clip-path="url(#clip0_368_6884)">
<path d="M34.1422 5.85785C30.3646 2.08039 25.3422 0 20 0C14.6578 0 9.63538 2.08039 5.85785 5.85785C2.08039 9.63538 0 14.6578 0 20C0 25.3422 2.08039 30.3646 5.85785 34.1422C9.63538 37.9196 14.6578 40 20 40C25.3422 40 30.3646 37.9196 34.1422 34.1422C37.9196 30.3646 40 25.3422 40 20C40 14.6578 37.9196 9.63538 34.1422 5.85785ZM33.3119 33.3119C29.8949 36.7288 25.3956 38.6695 20.5871 38.8158V38.1605C20.5871 37.8362 20.3242 37.5734 20 37.5734C19.6758 37.5734 19.4129 37.8362 19.4129 38.1605V38.8158C14.6044 38.6695 10.1051 36.7288 6.68814 33.3119C3.13237 29.7562 1.17417 25.0286 1.17417 20C1.17417 14.9714 3.13237 10.2438 6.68814 6.68814C10.1051 3.27115 14.6044 1.33049 19.4129 1.18419V1.83953C19.4129 2.16376 19.6758 2.42661 20 2.42661C20.3242 2.42661 20.5871 2.16376 20.5871 1.83953V1.18419C25.3956 1.33057 29.8949 3.27115 33.3119 6.68814C36.8676 10.2438 38.8258 14.9714 38.8258 20C38.8258 25.0286 36.8676 29.7562 33.3119 33.3119Z" fill="#BFC188"/>
<path d="M20 3.75732C11.0438 3.75732 3.75734 11.0437 3.75734 20C3.75734 28.9562 11.0438 36.2426 20 36.2426C28.9562 36.2426 36.2427 28.9562 36.2427 20C36.2427 11.0437 28.9562 3.75732 20 3.75732ZM20 35.0685C11.6912 35.0685 4.93151 28.3088 4.93151 20C4.93151 11.6912 11.6912 4.93149 20 4.93149C28.3088 4.93149 35.0685 11.6912 35.0685 20C35.0685 28.3088 28.3088 35.0685 20 35.0685Z" fill="#BFC188"/>
<path d="M23.7084 17.589C23.4157 17.7282 23.2912 18.0785 23.4305 18.3714C23.6733 18.8817 23.7965 19.4297 23.7965 19.9999C23.7965 22.0933 22.0934 23.7964 20 23.7964C17.9066 23.7964 16.2035 22.0933 16.2035 19.9999C16.2035 17.9066 17.9066 16.2035 20 16.2035C20.5688 16.2035 21.1155 16.326 21.6248 16.5676C21.9177 16.7065 22.2679 16.5818 22.4069 16.2888C22.5458 15.9958 22.421 15.6457 22.1281 15.5067C21.4602 15.1899 20.7442 15.0293 20 15.0293C17.2592 15.0293 15.0294 17.2591 15.0294 19.9999C15.0294 22.7408 17.2592 24.9706 20 24.9706C22.7408 24.9706 24.9706 22.7408 24.9706 19.9999C24.9706 19.2538 24.8092 18.5361 24.4908 17.8669C24.3515 17.5742 24.0013 17.4497 23.7084 17.589Z" fill="#BFC188"/>
<path d="M20.5957 8.70421C21.1962 8.73537 21.7973 8.81466 22.382 8.93991C22.4235 8.94883 22.4648 8.95306 22.5056 8.95306C22.7764 8.95306 23.02 8.76441 23.0791 8.48887C23.147 8.17184 22.9451 7.85975 22.628 7.79181C21.9825 7.65349 21.3191 7.56597 20.6565 7.53161C20.3324 7.51431 20.0566 7.7637 20.0398 8.08754C20.023 8.41138 20.2719 8.68738 20.5957 8.70421Z" fill="#BFC188"/>
<path d="M31.3297 14.7472C30.2004 12.3154 28.2772 10.275 25.9143 9.00185C25.6289 8.84811 25.2728 8.9548 25.119 9.2402C24.9652 9.5256 25.0719 9.88169 25.3573 10.0355C27.4986 11.1892 29.2415 13.0382 30.2648 15.2418C30.3642 15.4559 30.5762 15.5817 30.7976 15.5817C30.8804 15.5817 30.9645 15.5641 31.0445 15.5269C31.3385 15.3903 31.4662 15.0412 31.3297 14.7472Z" fill="#BFC188"/>
<path d="M17.0227 30.9153C13.3873 29.9261 10.4946 27.2035 9.28446 23.6321C9.18043 23.325 8.84712 23.1606 8.54004 23.2644C8.23295 23.3685 8.06833 23.7017 8.17237 24.0088C9.5081 27.951 12.7014 30.9564 16.7144 32.0483C16.7661 32.0624 16.8179 32.0691 16.869 32.0691C17.1273 32.0691 17.364 31.8973 17.4351 31.636C17.5202 31.3231 17.3355 31.0004 17.0227 30.9153Z" fill="#BFC188"/>
<path d="M20 16.908C18.2951 16.908 16.908 18.295 16.908 19.9999C16.908 21.7048 18.2951 23.0919 20 23.0919C21.7049 23.0919 23.092 21.7048 23.092 19.9999C23.092 18.295 21.7049 16.908 20 16.908ZM20 21.9177C18.9425 21.9177 18.0822 21.0574 18.0822 19.9999C18.0822 18.9425 18.9425 18.0821 20 18.0821C21.0575 18.0821 21.9178 18.9425 21.9178 19.9999C21.9178 21.0574 21.0575 21.9177 20 21.9177Z" fill="#BFC188"/>
</g>
<defs>
<clipPath id="clip0_368_6884">
<rect width="40" height="40" fill="white"/>
</clipPath>
</defs>
</svg>
