<svg width="158" height="36" viewBox="0 0 158 36" fill="none" xmlns="http://www.w3.org/2000/svg">
<path d="M24.3633 0.452148L25.4951 2.41992L26.4473 4.46875L27.1367 6.39453L27.5742 8.09375L27.8174 9.57227L27.9219 11.0117L27.8984 12.2373L27.8369 12.9219L27.7412 13.5928L27.5225 14.6084L27.2871 15.3857L26.9688 16.2168L26.335 17.5469L25.7959 18.4707L25.1855 19.3604L25.04 19.6504L25.2676 19.9229L25.7383 20.541L26.3467 21.5107L26.9512 22.6699L27.5996 24.1348L27.751 24.4785L27.8818 24.416L28.1553 24.2354L28.9443 23.7207L31.5811 21.9355L31.9893 21.5986L32.3467 21.2656L32.7852 20.7969L33.0713 20.4287L33.2773 20.1074L33.4453 19.7822L33.5771 19.4492L33.6494 19.2051L33.7148 18.9033L33.7441 18.6562L33.7588 18.209L33.7539 18.0342L33.7393 17.8584L33.7119 17.6611L33.6699 17.5703L33.6152 17.5068L33.5234 17.418L33.4297 17.3398L33.3203 17.2676L33.2031 17.207L33.0781 17.1582L32.9473 17.123L32.8086 17.0986L32.6123 17.0859L32.4053 17.0938L32.1855 17.124L31.8955 17.1904L31.5254 17.3154L31.1318 17.4883L30.7148 17.708L30.2207 18.0117L29.6748 18.4199L29.3281 18.6855L29.3076 18.5479L29.2715 18.1484L29.0869 14.8643L29.1611 12.208L29.4014 10.3232L29.6729 9.07031L30.0225 7.95703L30.3223 7.23828L30.6562 6.57617L31.0557 5.94043L31.4609 5.4082L31.9014 4.92578L32.3242 4.53906L32.8184 4.16699L33.2559 3.89941L33.7178 3.6709L34.2578 3.46387L34.8242 3.30566L35.1768 3.23438L35.5371 3.18066L35.8145 3.15625L36.2158 3.15039L36.8643 3.17188L37.3076 3.23926L37.9102 3.38965L38.4434 3.54004L38.3975 3.69043L38.2959 3.97266L37.5303 6.21484L36.2871 11.1436L35.7812 14.1182L35.4971 16.9668L35.4385 19.0732L35.4902 21.0234L35.7461 23.373L36.0264 24.8584L36.4248 26.3857L36.8877 27.7568L36.9941 28.0498L37.0361 28.1748L36.9258 28.1768L36.7061 28.1777L36.376 28.1846L36.0566 28.2236L33.5176 28.7168L31.3262 29.3369L29.3359 30.0869L28.6162 30.4307L27.9385 30.7881L27.5234 31.0381L27.418 31.1211L27.2559 31.2324L26.5156 31.7803L25.9805 32.2588L25.5645 32.7061L25.248 33.1152L25.0762 33.376L24.8955 33.6943L24.7236 34.0557L24.5674 34.4961L24.3115 35.3154L24.0918 36L24.0459 35.8672L23.9541 35.5498L23.7402 34.8467L23.54 34.2939L23.2842 33.71L23.1494 33.4639L22.9902 33.2168L22.6455 32.7588L22.1621 32.2344L21.6025 31.7354L20.8516 31.1855L19.8652 30.6006L18.5898 29.9951L17.1396 29.4443L14.625 28.7178L13.4023 28.4502L12.085 28.2236L11.7656 28.1846L11.4346 28.1777L11.1416 28.1738L11.4697 27.1602L11.9668 25.4912L12.3242 23.8066L12.5781 21.9424L12.6846 20.4395L12.7061 18.791L12.6572 17.1377L12.2891 13.6074L11.6299 10.0898L10.6045 6.18848L9.86133 4.01172L9.69824 3.5498L10.291 3.375L10.9102 3.22168L11.3623 3.16504L11.9131 3.15039L12.3262 3.15625L12.6045 3.18066L13.2373 3.28809L13.8408 3.4502L14.3525 3.64062L14.8389 3.87402L15.2998 4.15137L15.7344 4.46973L16.1729 4.85742L16.6143 5.32715L16.9912 5.80371L17.3643 6.36621L17.7637 7.10938L18.1084 7.92285L18.4316 8.92969L18.7373 10.3008L18.8818 11.2588L18.9883 12.2861L19.0557 13.9932L18.9297 17.4463L18.8633 18.2334L18.8184 18.6836L18.6943 18.5928L18.4561 18.4092L17.7363 17.8945L17.2119 17.5869L16.8184 17.3984L16.4287 17.249L16.1035 17.1533L15.8789 17.1094L15.7148 17.0908L15.5518 17.085L15.3877 17.0928L15.2314 17.1143L15.1055 17.1455L14.9854 17.1875L14.8711 17.2412L14.7637 17.3057L14.6621 17.3809L14.5664 17.4678L14.4697 17.5703L14.4189 17.7266L14.3936 18L14.3838 18.3574L14.4004 18.6992L14.457 19.0537L14.5332 19.3535L14.6357 19.6406L14.7676 19.9238L14.874 20.1143L15.0156 20.3408L15.3018 20.7314L15.5137 20.9766L15.7891 21.2598L16.3545 21.7705L17.3555 22.5127L18.998 23.5928L20.2646 24.4199L20.4453 24.1738L21.3994 22.082L21.792 21.3701L22.2324 20.6631L22.584 20.166L23.0176 19.6445L23.0684 19.584L22.8818 19.332L22.1445 18.2373L21.5332 17.1377L21 15.9492L20.5889 14.75L20.2959 13.582L20.0869 12.3066L20.0107 11.5156L19.9785 10.6787L20.0146 9.32422L20.084 8.60156L20.1914 7.8623L20.3887 6.94824L20.6768 6.02637L20.9766 5.27246L21.3467 4.47559L22.1719 2.95703L23.4014 1.00293L23.8994 0.239258L24.0586 0L24.3633 0.452148ZM47.3975 23.7861L47.3623 23.9668L47.0391 25.2695L46.6748 26.3242L46.5098 26.7109L46.3379 27.0625L46.0576 27.5479L45.8281 27.8721L45.6035 28.1328L45.4346 28.3008L45.2246 28.4824L44.9258 28.7021L44.6045 28.8945L44.2744 29.0557L44.0342 29.1494L43.7705 29.2285L43.6504 29.2568V29.3447L43.6465 29.4297L43.6201 29.6045L43.5723 29.8105L43.4961 30.0391L43.3174 30.4463L43.0215 30.9893L42.8115 31.3145L42.6025 31.5908L41.7793 32.4551L40.4688 33.6934L39.4639 34.5918L39.5645 34.0703L39.7188 33.4229L40.0732 32.2812L40.3965 31.4961L40.6904 30.9297L40.8779 30.6299L41.1064 30.3174L41.2871 30.1143L41.5576 29.8633L41.8936 29.6045L42.2148 29.3994L42.376 29.3115L42.5654 29.2217L42.8184 29.125L43.0547 29.0498L43.1816 29.0166L43.2285 29.0049L43.2363 28.8516L43.248 28.7217L43.2773 28.5654L43.3369 28.3535L43.4424 28.0742L43.5996 27.7373L43.8936 27.2158L44.1045 26.8984L44.3242 26.6162L44.9609 25.9541L45.7607 25.1699L47.4131 23.6904L47.3975 23.7861ZM0.863281 23.79L1.11426 24.0127L2.83691 25.6064L3.89062 26.7012L4.09668 26.9795L4.34277 27.3701L4.58203 27.8174L4.75977 28.2227L4.8418 28.4697L4.88086 28.6367L4.89648 28.7422L4.9043 28.8438L4.96582 29.0186L5.34863 29.1328L5.53906 29.207L5.74316 29.3018L6.08398 29.4922L6.40332 29.7139L6.69922 29.9629L6.89648 30.1602L7.09961 30.3965L7.33984 30.7314L7.63867 31.2373L7.9834 31.9609L8.29785 32.7842L8.59961 33.7783L8.77148 34.4922L8.3623 34.1729L7.65918 33.5752L6.25586 32.3164L5.45117 31.4795L5.28809 31.2549L4.9668 30.7207L4.83398 30.4668L4.71094 30.2021L4.60645 29.9209L4.53125 29.6445L4.49902 29.4639L4.49023 29.2598L4.31641 29.2129L4.01758 29.1172L3.72754 28.9951L3.41406 28.8281L3.1084 28.6279L2.92871 28.4902L2.75195 28.3408L2.5293 28.125L2.32324 27.8857L2.10938 27.585L1.93945 27.3027L1.74902 26.9443L1.43164 26.2256L1.11328 25.3018L0.833008 24.2197L0.733398 23.7119L0.863281 23.79ZM20.958 26.1533L20.8916 26.3164L20.4805 27.415L20.0752 28.6221L19.8174 29.459L20.2021 29.667L20.6465 29.9082L21.6104 30.5166L22.2822 31.0293L22.9277 31.6172L23.1855 31.873L23.1924 31.4531L23.2139 30.9268L23.2734 30.4492L23.3906 29.8584L23.5449 29.3135L23.5762 29.2207L23.502 29.0508L23.2705 28.5781L22.957 28.0635L22.5801 27.5605L22.0801 27.0059L21.6748 26.6143L21.2217 26.2168L21.0254 26.0605L20.958 26.1533ZM27.0381 26.1211L26.8018 26.3174L26.0752 26.9912L25.5508 27.5771L25.1484 28.1201L24.9609 28.4189L24.7695 28.7705L24.6025 29.1396L24.5928 29.2979L24.6338 29.4307L24.7852 29.9893L24.8945 30.6221L24.9375 31.0625L24.957 31.5615L24.9619 31.8662L25.0322 31.7988L25.1973 31.6328L25.7939 31.083L26.2246 30.7422L26.7363 30.3809L27.4082 29.96L28.085 29.5908L28.2148 29.5205L28.1279 29.0342L27.873 28.2373L27.1934 26.3379L27.0918 26.0791L27.0381 26.1211ZM2.56348 29.0322L2.87305 29.2598L3.23438 29.4766L3.48242 29.6006L3.75195 29.7139L3.88184 29.7695L3.9209 29.8975L4.02051 30.2148L4.125 30.4814L4.25781 30.7695L4.41211 31.0625L4.54297 31.2891L4.59473 31.373L4.50879 31.415L4.27051 31.3828L4.04004 31.3262L3.81836 31.2461L3.6084 31.1445L3.41113 31.0215L3.22656 30.8799L3.05762 30.7197L2.90625 30.543L2.77148 30.3506L2.65723 30.1445L2.56348 29.9248L2.50781 29.7529L2.46484 29.5752L2.44824 29.4512L2.42383 29.0508L2.42773 28.9482L2.56348 29.0322ZM45.71 29.1885L45.6924 29.4775L45.6689 29.6172L45.6426 29.7246L45.6064 29.8438L45.5312 30.0469L45.4365 30.2402L45.3252 30.4229L45.1973 30.5928L45.0537 30.75L44.8975 30.8936L44.7275 31.0215L44.5479 31.1338L44.3574 31.2295L44.1582 31.3066L43.9512 31.3652L43.792 31.3965L43.6299 31.415L43.5361 31.3906L43.7832 30.9668L44.0293 30.4482L44.1318 30.1836L44.209 29.9414L44.2568 29.7646L44.3926 29.7129L44.7363 29.5654L45.0664 29.3877L45.3643 29.1934L45.6602 28.9668L45.7178 28.9199L45.71 29.1885ZM37.0703 24.1885L39.1807 25.4473L42.167 27.2305L42.2061 27.2051L42.3789 27.1045L42.5615 27.0186L42.7754 26.9424L42.9971 26.8867L43.1338 26.8633L43.2734 26.8467L43.3613 26.8389L43.2725 26.9863L42.9746 27.5322L42.7832 27.9736L42.7178 28.1592L42.6582 28.3613L42.6211 28.498L42.4727 28.5547L42.1562 28.6924L41.79 28.8916L41.5303 29.0605L41.2852 29.2441L41.1738 29.333L41.1602 29.166L41.1621 29.0508L41.168 28.9199L38.9863 27.6201L36.8027 26.3203L36.7637 26.1953L36.4971 25.1963L36.2617 24.1152L36.1846 23.6807L37.0703 24.1885ZM11.9102 23.9443L11.6953 24.9932L11.4307 26.0088L11.3438 26.3164L9.21973 27.582L7.03516 28.8857L6.98145 29.0801L6.98242 29.2236L6.98047 29.2588L6.83594 29.2256L6.51562 28.9961L6.2373 28.8223L5.97363 28.6836L5.70508 28.5723L5.51562 28.4951L5.4668 28.2881L5.35449 27.9658L5.1543 27.5117L4.89648 27.0322L4.79688 26.8545L4.99609 26.8623L5.18262 26.8936L5.37305 26.9443L5.58008 27.0195L5.73535 27.0908L5.88965 27.1768L5.97461 27.2285L8.93359 25.4648L11.957 23.6904L11.9102 23.9443ZM13.9756 20.2109L13.9648 20.3428L13.833 21.668L13.4219 24.0957L13.0371 25.625L12.5273 27.1777L12.5029 27.251L12.501 27.29L12.7354 27.3311L15.2188 27.8545L17.0889 28.3887L18.709 28.9727L18.873 29.042L18.915 28.8818L19.4639 26.9375L19.959 25.4473L19.9951 25.3418L19.5596 24.9883L18.7793 24.4697L16.6611 23.0332L15.6709 22.2412L15.0449 21.6377L14.627 21.1484L14.3203 20.7119L14.1895 20.4922L14.0732 20.2705L13.998 20.1289L13.9756 20.2109ZM34.0596 20.2871L33.8408 20.6797L33.584 21.0586L33.252 21.4658L32.8535 21.8828L32.1035 22.5518L31.125 23.2891L29.1562 24.6074L28.457 25.0752L28.0752 25.3379L28.1162 25.4824L28.2373 25.835L29.1865 29.0205L30.5566 28.5498L32.9326 27.8525L35.4111 27.3301L35.6338 27.2891L35.6211 27.2021L35.5928 27.1211L35.1113 25.6504L34.665 23.8408L34.3457 21.9609L34.168 20.2383L34.1572 20.1113L34.0596 20.2871ZM24.0117 20.7285L23.667 21.1104L23.3623 21.5088L22.6211 22.6465L22.0645 23.6621L21.4883 24.8799L21.3623 25.1807L21.4248 25.252L22.3398 26.0176L23.0186 26.7041L23.5156 27.3037L23.9717 27.9746L24.0703 28.1357L24.168 27.9785L24.5137 27.4521L25.002 26.8379L25.5781 26.2334L26.2402 25.6367L26.6074 25.3369L26.7422 25.2305L26.6406 24.9932L25.9248 23.4824L25.1934 22.2031L24.7803 21.5879L24.4121 21.0977L24.0625 20.7061L24.0117 20.7285ZM22.9473 3.92383L22.3857 5.86719L22.0586 7.50586L21.918 8.77051L21.8691 10.1992L21.9248 11.6875L22.0996 13.1006L22.3926 14.4756L22.7998 15.7959L23.1924 16.7695L23.6426 17.6689L24.0127 18.2881L24.123 18.166L24.2764 17.9121L24.7842 16.9404L25.2598 15.7939L25.6719 14.4766L25.8789 13.5742L26.0439 12.5488L26.1367 11.5664L26.1621 10.501L26.1016 8.95898L25.8594 7.08691L25.3574 4.84082L24.8389 3.13184L24.0439 1.00488L22.9473 3.92383ZM12.2334 5.02246L12.2412 5.14062L12.3115 5.40332L13.3799 10.2578L13.7705 12.9307L14.0088 15.7002L14.0547 16.8779L14.1484 16.7891L14.2891 16.6729L14.4404 16.5693L14.6016 16.4795L14.7705 16.4043L14.9492 16.3428L15.1299 16.2998L15.3682 16.2656L15.6191 16.2529L15.9375 16.2666L16.3281 16.3223L16.7354 16.4199L17.2178 16.582L17.7119 16.7979L17.8867 16.877L17.9424 15.8936L17.9219 14.7354L17.8154 13.124L17.627 11.7246L17.3779 10.4766L17.043 9.3291L16.6807 8.40527L16.4746 7.97363L16.252 7.56055L15.9355 7.06543L15.5801 6.61719L15.2578 6.28125L14.9131 5.98242L14.5479 5.7207L14.165 5.49707L13.7656 5.31543L13.3525 5.1748L13.0146 5.09375L12.6699 5.04102L12.3584 5.02148L12.2334 5.02246ZM35.4961 5.04004L35.0654 5.1084L34.6465 5.21973L34.2412 5.37207L33.8516 5.56445L33.4785 5.7959L33.124 6.06445L32.79 6.37012L32.418 6.78418L32.1885 7.08789L31.9248 7.49707L31.5459 8.21582L31.1787 9.10059L30.8418 10.1709L30.5977 11.2305L30.4131 12.3652L30.291 13.5264L30.2158 14.8271L30.2031 16.874L30.2939 16.8594L30.4277 16.7969L30.9834 16.5596L31.4639 16.4033L31.8691 16.3125L32.2559 16.2627L32.5713 16.2539L32.8203 16.2705L33.0098 16.2998L33.1895 16.3428L33.3721 16.4043L33.5439 16.4814L33.7061 16.5723L33.8584 16.6787L34.002 16.8008L34.082 16.875L34.0898 16.7012L34.1113 16.1729L34.4287 12.4531L35.0059 8.94824L35.8486 5.33496L35.9043 5.12402L35.9268 5.0293L35.6953 5.02441L35.4961 5.04004ZM42.0283 5.31055L42.3818 5.56934L42.7266 5.77734L42.9775 5.9043L43.2549 6.01953L43.3555 6.06055L43.3721 6.06934L43.4307 6.25586L43.5449 6.60156L43.7529 7.07422L44.0264 7.57227L44.1191 7.72754L44.0244 7.71777L43.7783 7.68359L43.5635 7.63184L43.3584 7.56348L43.1855 7.48633L43.0947 7.43848L43.0088 7.38574L42.9355 7.34961L41.9746 7.90332L39.7891 9.20703L36.7012 11.041L36.7842 10.626L36.9473 9.89062L37.3174 8.41602L39.6348 7.01074L41.9238 5.64551L41.9268 5.4375L41.9307 5.23145L42.0283 5.31055ZM6.20312 5.64551L8.51172 7.02246L10.8301 8.41113L11.4316 10.9824L10.5234 10.5059L8.32617 9.2002L5.20117 7.34375L5.11621 7.38867L4.95801 7.47852L4.78711 7.55566L4.58398 7.62598L4.37012 7.67871L4.2373 7.70215L4.10156 7.71777L4.00781 7.72754L4.10059 7.57227L4.40039 7.02051L4.57227 6.62695L4.69629 6.25586L4.74609 6.07617L4.87109 6.01953L5.18555 5.8877L5.52246 5.70898L5.83105 5.51074L6.20312 5.22656V5.64551ZM40.3545 0.0878906L40.5605 0.269531L42.6787 2.25586L43.3896 3.00684L43.5186 3.17383L43.6416 3.35254L43.9971 3.95801L44.2051 4.39941L44.3232 4.72754L44.3809 4.95703L44.3994 5.07617L44.4082 5.21191L44.6982 5.38574L44.957 5.47559L45.2793 5.62207L45.5869 5.79688L45.8799 6L46.084 6.16699L46.3047 6.37207L46.5068 6.59473L46.7412 6.90527L47.0029 7.32812L47.3164 7.96094L47.6631 8.86328L47.9883 10L48.1074 10.5303L48.1709 10.8662L48.042 10.7832L47.8809 10.6348L46.7861 9.62402L45.2725 8.18066L45.0215 7.88574L44.8145 7.59961L44.458 7.01562L44.2275 6.55078L44.0938 6.2041L44.0264 5.96094L43.9932 5.74609L43.9902 5.66309V5.55957L43.5684 5.43652L43.2539 5.31055L42.9551 5.15625L42.7432 5.02539L42.5332 4.87598L42.2178 4.61426L41.9863 4.38379L41.7764 4.13086L41.5977 3.87598L41.4229 3.58887L41.125 3.00195L40.7891 2.15723L40.5986 1.56934L40.4111 0.874023L40.2334 0.0429688L40.2305 0.0185547L40.3545 0.0878906ZM7.97852 0.171875L7.75293 1.05273L7.48047 1.90918L7.08301 2.89258L6.74902 3.53809L6.46094 3.9873L6.19141 4.32812L6.05176 4.47949L5.9082 4.61719L5.59375 4.87891L5.30078 5.08008L4.99707 5.25098L4.67969 5.3916L4.45996 5.46973L4.19336 5.54492L4.13867 5.66309L4.13379 5.76074L4.11523 5.88965L4.07129 6.08008L3.97461 6.37012L3.85352 6.65625L3.70312 6.95703L3.4375 7.41016L3.19922 7.76367L2.4834 8.54004L1.3418 9.64258L0 10.8447L0.0195312 10.5332L0.139648 10L0.495117 8.77539L0.845703 7.88574L1.16211 7.26367L1.4248 6.85059L1.62109 6.59473L1.82422 6.37207L2.12012 6.10254L2.40723 5.88574L2.70801 5.69727L2.93555 5.5791L3.1709 5.47559L3.42969 5.38574L3.68359 5.31543L3.71973 5.21191L3.72559 5.10449L3.74707 4.95703L3.79492 4.76172L3.89258 4.47461L4.06738 4.08203L4.24707 3.74707L4.4873 3.35449L4.59082 3.19922L4.66895 3.0918L4.98242 2.74219L5.78809 1.96484L6.91504 0.964844L7.59082 0.390625L7.99219 0.0605469L7.97852 0.171875ZM3.7627 3.28906L3.45898 3.84863L3.28516 4.24707L3.16504 4.60645L3.12109 4.76953L2.98242 4.84961L2.60938 5.01074L2.27832 5.19238L2.00488 5.37109L1.70996 5.59668L1.66016 5.375L1.67773 5.08203L1.70117 4.94043L1.72656 4.83398L1.76074 4.71875L1.81445 4.5791L1.94629 4.30957L2.01074 4.19629L2.07129 4.10156L2.16016 3.98926L2.36133 3.77344L2.4707 3.6709L2.56836 3.5918L2.7373 3.47852L2.91504 3.37988L3.09961 3.29883L3.29199 3.2334L3.48926 3.18555L3.61621 3.16406L3.74414 3.14941L3.85156 3.14062L3.7627 3.28906ZM44.4141 3.15137L44.6709 3.19336L44.8887 3.25L45.0947 3.32617L45.291 3.4209L45.417 3.49414L45.5605 3.5918L45.6572 3.6709L45.8555 3.86426L45.9688 3.98926L46.0566 4.10156L46.1387 4.23242L46.2783 4.5L46.3301 4.61719L46.3672 4.71875L46.4248 4.92871L46.4482 5.07031L46.4609 5.20117L46.4678 5.375L46.4189 5.59668L46.0488 5.31934L45.6982 5.10449L45.4404 4.97363L45.1455 4.84961L45.0547 4.81152L44.9629 4.60645L44.8721 4.32324L44.6953 3.9043L44.542 3.59961L44.3672 3.29004L44.3262 3.14453L44.4141 3.15137Z" fill="#FEFFE0"/>
<path d="M53.9512 23.4476V10.7028H55.8329V23.4476H63.1508V10.7028H65.0325V23.4476L63.3598 25.0921H55.6238L53.9512 23.4476Z" fill="#FEFFE0"/>
<path d="M67.5496 25.0921V10.7028H69.4314V16.9724H72.8812L76.812 10.7028H79.0282L74.6375 17.4863L79.3419 25.0921H77.1674L73.1739 18.6169H69.4314V25.0921H67.5496Z" fill="#FEFFE0"/>
<path d="M82.6011 18.5141H89.9189V12.3473H82.6011V18.5141ZM91.8007 12.3473V18.5141L90.3998 19.8914L92.9506 25.0921H90.9225L88.5599 20.1586H82.6011V25.0921H80.7193V10.7028H90.128L91.8007 12.3473Z" fill="#FEFFE0"/>
<path d="M94.3178 23.4476V12.3473L95.9905 10.7028H104.354L106.026 12.3473V23.4476L104.354 25.0921H95.9905L94.3178 23.4476ZM96.1995 12.3473V23.4476H104.145V12.3473H96.1995Z" fill="#FEFFE0"/>
<path d="M110.411 20.3642H117.519V12.3473H110.411V20.3642ZM119.401 12.3473V20.3642L117.728 22.0086H110.411V25.0921H108.529V10.7028H117.728L119.401 12.3473Z" fill="#FEFFE0"/>
<path d="M125.153 25.0921V12.3473H120.658V10.7028H131.53V12.3473H127.035V25.0921H125.153Z" fill="#FEFFE0"/>
<path d="M133.194 25.0921V10.7028H143.23V12.3473H135.076V16.8696H142.184V18.5141H135.076V23.4476H143.439V25.0921H133.194Z" fill="#FEFFE0"/>
<path d="M147.204 18.5141H154.522V12.3473H147.204V18.5141ZM156.404 12.3473V18.5141L155.003 19.8914L157.554 25.0921H155.525L153.163 20.1586H147.204V25.0921H145.322V10.7028H154.731L156.404 12.3473Z" fill="#FEFFE0"/>
</svg>
