<svg width="40" height="40" viewBox="0 0 40 40" fill="none" xmlns="http://www.w3.org/2000/svg">
<path d="M20 0C11.7213 0 4.98615 6.73519 4.98615 15.0139C4.98615 18.1115 5.76673 21.189 7.30614 24.1608C8.52971 26.5228 10.2327 28.8225 12.3678 30.9959C15.9914 34.6845 19.5623 36.7093 19.7126 36.7937C19.8019 36.8438 19.901 36.8689 20.0001 36.8689C20.1011 36.8689 20.202 36.8429 20.2924 36.7909C20.4425 36.7047 24.0115 34.6367 27.6335 30.927C29.7679 28.741 31.4704 26.4391 32.6936 24.0854C34.2333 21.1228 35.0139 18.0707 35.0139 15.0139C35.0139 6.73519 28.2787 0 20 0ZM31.6596 23.5288C30.4932 25.7775 28.863 27.9833 26.8146 30.0849C23.8842 33.0915 20.9167 35.0288 19.9969 35.5979C19.0756 35.0386 16.1108 33.1363 13.1835 30.1508C11.136 28.0626 9.50654 25.8604 8.34051 23.605C6.89386 20.8067 6.16023 17.9163 6.16023 15.0139C6.16031 7.38262 12.3687 1.17417 20 1.17417C27.6313 1.17417 33.8398 7.38262 33.8398 15.0139C33.8397 17.8751 33.1062 20.7399 31.6596 23.5288Z" fill="#BFC188"/>
<path d="M29.9085 9.69447C29.8307 9.54918 29.7483 9.40319 29.6637 9.26065C29.4982 8.9819 29.138 8.89024 28.8592 9.05564C28.5803 9.2212 28.4886 9.58143 28.6542 9.86018C28.7307 9.98903 28.8052 10.121 28.8776 10.2564C28.8776 10.2567 28.8778 10.257 28.878 10.2572C29.6504 11.7029 30.0587 13.3394 30.0587 14.9902C30.0587 20.5366 25.5464 25.0489 20 25.0489C14.4536 25.0489 9.94129 20.5366 9.94129 14.9902C9.94129 9.44382 14.4536 4.93149 20 4.93149C21.2229 4.93149 22.4176 5.14832 23.5509 5.57603C23.8542 5.69055 24.193 5.53744 24.3075 5.23404C24.4219 4.93071 24.2688 4.59192 23.9655 4.47748C22.6993 3.99967 21.3651 3.75732 20 3.75732C13.8062 3.75732 8.76712 8.79638 8.76712 14.9902C8.76712 21.184 13.8062 26.2231 20 26.2231C26.1938 26.2231 31.2329 21.184 31.2329 14.9902C31.2329 13.1455 30.7759 11.3161 29.909 9.69533C29.9089 9.69501 29.9087 9.69478 29.9085 9.69447Z" fill="#BFC188"/>
<path d="M25.9145 6.85319C26.3344 7.15895 26.7341 7.50016 27.1025 7.86752C27.2171 7.98173 27.367 8.03887 27.5169 8.03887C27.6675 8.03887 27.818 7.98134 27.9327 7.86627C28.1616 7.63668 28.161 7.26494 27.9314 7.03605C27.5203 6.62611 27.0742 6.24521 26.6056 5.904C26.3434 5.71316 25.9763 5.771 25.7854 6.033C25.5947 6.29507 25.6524 6.66227 25.9145 6.85319Z" fill="#BFC188"/>
<path d="M23.7573 38.8258H16.2427C15.9184 38.8258 15.6556 39.0887 15.6556 39.4129C15.6556 39.7371 15.9184 40 16.2427 40H23.7573C24.0816 40 24.3444 39.7371 24.3444 39.4129C24.3444 39.0887 24.0816 38.8258 23.7573 38.8258Z" fill="#BFC188"/>
<path d="M21.2916 11.2328C21.2916 11.7003 21.4224 12.1378 21.6492 12.5107L20 14.16L18.3508 12.5107C18.5776 12.1378 18.7084 11.7003 18.7084 11.2328C18.7084 9.87323 17.6023 8.76709 16.2427 8.76709C14.8831 8.76709 13.7769 9.87323 13.7769 11.2328C13.7769 12.5925 14.8831 13.6986 16.2427 13.6986C16.7101 13.6986 17.1476 13.5678 17.5206 13.3409L19.1698 14.9902L17.5206 16.6394C17.1476 16.4126 16.7101 16.2818 16.2427 16.2818C14.8831 16.2818 13.7769 17.3879 13.7769 18.7475C13.7769 20.1071 14.8831 21.2133 16.2427 21.2133C17.6023 21.2133 18.7084 20.1071 18.7084 18.7475C18.7084 18.28 18.5776 17.8426 18.3508 17.4696L20 15.8204L21.6492 17.4696C21.4223 17.8426 21.2916 18.28 21.2916 18.7475C21.2916 20.1071 22.3977 21.2133 23.7573 21.2133C25.117 21.2133 26.2231 20.1071 26.2231 18.7475C26.2231 17.3879 25.117 16.2818 23.7573 16.2818C23.2899 16.2818 22.8524 16.4126 22.4795 16.6394L20.8302 14.9902L22.4795 13.3409C22.8524 13.5678 23.2899 13.6986 23.7573 13.6986C25.117 13.6986 26.2231 12.5925 26.2231 11.2328C26.2231 9.87323 25.117 8.76709 23.7573 8.76709C22.3977 8.76709 21.2916 9.87323 21.2916 11.2328ZM16.2427 12.5244C15.5305 12.5244 14.9511 11.945 14.9511 11.2328C14.9511 10.5207 15.5305 9.94126 16.2427 9.94126C16.9548 9.94126 17.5343 10.5207 17.5343 11.2328C17.5343 11.3717 17.5116 11.5053 17.4709 11.6308L16.6578 10.8177C16.4285 10.5885 16.0568 10.5885 15.8276 10.8177C15.5983 11.047 15.5983 11.4188 15.8276 11.648L16.6406 12.461C16.5151 12.5018 16.3815 12.5244 16.2427 12.5244ZM17.5343 18.7475C17.5343 19.4597 16.9548 20.0391 16.2427 20.0391C15.5305 20.0391 14.9511 19.4597 14.9511 18.7475C14.9511 18.0353 15.5305 17.4559 16.2427 17.4559C16.3815 17.4559 16.5152 17.4786 16.6406 17.5193L15.8276 18.3324C15.5983 18.5617 15.5983 18.9334 15.8276 19.1626C15.9422 19.2772 16.0925 19.3346 16.2427 19.3346C16.3929 19.3346 16.5432 19.2773 16.6578 19.1626L17.4709 18.3496C17.5116 18.475 17.5343 18.6087 17.5343 18.7475ZM23.7573 17.4559C24.4695 17.4559 25.0489 18.0353 25.0489 18.7475C25.0489 19.4597 24.4695 20.0391 23.7573 20.0391C23.0452 20.0391 22.4658 19.4597 22.4658 18.7475C22.4658 18.6087 22.4884 18.475 22.5292 18.3496L23.3422 19.1626C23.4568 19.2772 23.6071 19.3346 23.7573 19.3346C23.9076 19.3346 24.0579 19.2773 24.1725 19.1626C24.4017 18.9334 24.4017 18.5616 24.1725 18.3324L23.3594 17.5193C23.4849 17.4786 23.6184 17.4559 23.7573 17.4559ZM25.0489 11.2328C25.0489 11.945 24.4695 12.5244 23.7573 12.5244C23.6185 12.5244 23.4849 12.5018 23.3594 12.461L24.1725 11.648C24.4017 11.4187 24.4017 11.0469 24.1725 10.8177C23.9432 10.5885 23.5714 10.5885 23.3422 10.8177L22.5292 11.6308C22.4884 11.5053 22.4658 11.3718 22.4658 11.2328C22.4658 10.5207 23.0452 9.94126 23.7573 9.94126C24.4695 9.94126 25.0489 10.5207 25.0489 11.2328Z" fill="#BFC188"/>
</svg>
