<svg width="40" height="40" viewBox="0 0 40 40" fill="none" xmlns="http://www.w3.org/2000/svg">
<path d="M20 0C8.97161 0 0 8.97161 0 20C0 31.0284 8.97161 40 20 40C31.0284 40 40 31.0284 40 20C40 8.97161 31.0284 0 20 0ZM20 38.7097C9.68387 38.7097 1.29032 30.3161 1.29032 20C1.29032 9.68387 9.68387 1.29032 20 1.29032C30.3161 1.29032 38.7097 9.68387 38.7097 20C38.7097 30.3161 30.3161 38.7097 20 38.7097Z" fill="#BFC188"/>
<path d="M33.3142 10.8981C33.4645 10.5129 33.5484 10.1 33.5484 9.67354C33.5484 9.15419 33.4258 8.63483 33.1935 8.16967L32.6568 7.09677H30.4619C28.9658 7.09677 27.5206 7.72451 26.4994 8.81806L18.8832 16.9787L18.8884 16.9832C17.6581 17.4393 16.7742 18.6135 16.7742 20C16.7742 20.1071 16.7955 20.2077 16.8058 20.3123L10.9929 25.0355C10.1342 23.5019 9.67742 21.7729 9.67742 20C9.67742 15.9613 12.0606 12.2716 15.7497 10.6013L15.2181 9.4258C11.0684 11.3045 8.3871 15.4555 8.3871 20C8.3871 22.0697 8.94065 24.0852 9.98 25.8587L7.69484 27.7155C7.61355 27.7813 7.53871 27.8522 7.46452 27.9245C5.96194 25.5542 5.16129 22.8303 5.16129 20C5.16129 12.7258 10.3619 6.5729 17.5265 5.37032L17.3123 4.09741C9.52387 5.40515 3.87097 12.0929 3.87097 20C3.87097 23.271 4.84581 26.4148 6.68581 29.1019C6.53548 29.4871 6.45161 29.9 6.45161 30.3264C6.45161 30.8458 6.57419 31.3652 6.80645 31.8303L7.34323 32.9032H9.53806C11.0342 32.9032 12.4794 32.2755 13.5006 31.1819L21.1174 23.0213L21.1123 23.0168C22.3419 22.5606 23.2258 21.3864 23.2258 20C23.2258 19.8929 23.2045 19.7923 23.1942 19.6877L29.0071 14.9645C29.8658 16.4981 30.3226 18.2271 30.3226 20C30.3226 22.7497 29.2484 25.3361 27.2981 27.2858L28.2103 28.1981C30.4045 26.0058 31.6129 23.0942 31.6129 20C31.6129 17.9303 31.0594 15.9148 30.02 14.1413L32.3052 12.2845C32.3865 12.2187 32.4613 12.1477 32.5355 12.0755C34.0381 14.4458 34.8387 17.1697 34.8387 20C34.8387 28.1826 28.1826 34.8387 20 34.8387V36.129C28.8935 36.129 36.129 28.8935 36.129 20C36.129 16.729 35.1542 13.5852 33.3142 10.8981ZM12.5568 30.3013C11.7787 31.1348 10.6787 31.6129 9.53806 31.6129H8.14065L7.96065 31.2535C7.81742 30.9671 7.74194 30.6464 7.74194 30.3264C7.74194 29.6987 8.02129 29.1123 8.50839 28.7174L17.2323 21.629C17.671 22.371 18.3903 22.9226 19.251 23.129L12.5568 30.3013ZM20 21.9355C18.9329 21.9355 18.0645 21.0671 18.0645 20C18.0645 18.9329 18.9329 18.0645 20 18.0645C21.0671 18.0645 21.9355 18.9329 21.9355 20C21.9355 21.0671 21.0671 21.9355 20 21.9355ZM31.4916 11.2826L22.7684 18.371C22.3297 17.629 21.6103 17.0774 20.7497 16.871L27.4432 9.6987C28.2213 8.86515 29.3213 8.38709 30.4619 8.38709H31.8594L32.0394 8.74644C32.1826 9.0329 32.2581 9.35354 32.2581 9.67354C32.2581 10.3013 31.9787 10.8877 31.4916 11.2826Z" fill="#BFC188"/>
<path d="M25.8297 28.5006C25.311 28.8567 24.7794 29.1593 24.2497 29.3993L24.7826 30.5748C25.3813 30.3032 25.9794 29.9638 26.5606 29.5645L25.8297 28.5006Z" fill="#BFC188"/>
<path d="M20 5.16129V3.87097C19.5845 3.87097 19.1452 3.89033 18.6561 3.93162L18.7632 5.21742C19.2155 5.17936 19.6206 5.16129 20 5.16129Z" fill="#BFC188"/>
</svg>
