<svg aria-hidden="true" style="position: absolute; width: 0; height: 0; overflow: hidden;" version="1.1" xmlns="http://www.w3.org/2000/svg" xmlns:xlink="http://www.w3.org/1999/xlink">
<defs>
<symbol id="icon-focus" viewBox="0 0 144 32">
<path fill="#ed3237" style="fill: var(--color1, #ed3237)" d="M60.807 10.567c-0.1-5.869-4.949-10.546-10.83-10.445h-3.388c-5.877 0.132-10.562 4.942-10.528 10.808l0.181 10.385c0.1 5.879 4.939 10.573 10.83 10.506h3.328c5.891-0.099 10.595-4.928 10.528-10.808l-0.121-10.445zM49.734 25.48h-2.42c-2.216 0-4.021-1.774-4.054-3.985l-0.182-11.23c-0.033-2.234 1.755-4.072 3.993-4.106h2.42c2.226-0.001 4.049 1.765 4.114 3.985l0.121 11.23c0.068 2.248-1.74 4.107-3.993 4.106z"></path>
<path fill="#ed3237" style="fill: var(--color1, #ed3237)" d="M12.706 0.12h7.503v2.294h4.356c4.798 0.033 8.68 3.906 8.713 8.694v7.306c-0.033 4.778-3.924 8.634-8.713 8.634h-4.356v4.734h-7.503v-4.734h-3.993c-4.788 0-8.679-3.856-8.713-8.634v-7.306c0.033-4.788 3.914-8.661 8.713-8.694h3.993v-2.294zM12.706 7.909h-1.694c-2.329-0.034-4.236 1.841-4.235 4.166v5.374c-0 2.325 1.906 4.2 4.235 4.166h1.694v-13.706zM20.208 21.615h1.694c2.329 0.034 4.236-1.841 4.235-4.166v-5.374c0-2.325-1.906-4.2-4.235-4.166h-1.694v13.706z"></path>
<path fill="#ed3237" style="fill: var(--color1, #ed3237)" d="M111.449 0.121l-5.869 13.887-6.716-13.887h-8.108l11.314 22.219-3.933 9.298h8.108l13.069-31.517h-7.865zM90.393 31.638l-11.677-17.208 10.407-14.309h-8.108l-9.076 13.645v-13.766h-7.503v31.638h7.503v-15.215l10.407 15.215h8.047zM136.255 22.038c-0.246 1.977-1.937 3.456-3.933 3.441h-2.42c-2.215 0-4.020-1.774-4.054-3.985l-0.182-11.23c-0.032-2.234 1.755-4.071 3.993-4.106h2.42c1.933 0.016 3.595 1.372 3.993 3.26h7.2c-0.678-5.368-5.288-9.37-10.709-9.298h-3.388c-5.877 0.132-10.562 4.942-10.528 10.808l0.181 10.385c0.1 5.879 4.939 10.573 10.83 10.506h3.328c5.475-0.073 10.001-4.277 10.467-9.721l-7.2-0.060z"></path>
</symbol>
<symbol id="icon-uatv" viewBox="0 0 173 32">
<path fill="#000" style="fill: var(--color2, #000)" d="M16 0c8.837 0 16 7.163 16 16s-7.163 16-16 16c-8.837 0-16-7.163-16-16s7.163-16 16-16z"></path>
<path fill="#95966b" style="fill: var(--color3, #95966b)" d="M41.728 21.461v-12.928h2.475v12.715h6.528v-12.715h2.475v12.928l-2.005 2.005h-7.467l-2.005-2.005zM54.771 23.467l3.691-14.933h5.803l3.691 14.933h-2.581l-0.853-3.627h-6.315l-0.853 3.627h-2.581zM58.632 17.877h5.461l-1.749-7.296h-1.963l-1.749 7.296zM71.687 23.467v-12.757h-4.352v-2.176h11.179v2.176h-4.352v12.757h-2.475zM83.003 23.467l-3.691-14.933h2.603l3.008 12.715h1.963l3.008-12.715h2.603l-3.691 14.933h-5.803zM99.603 23.467v-14.933h10.326v2.133h-7.851v4.096h6.784v2.091h-6.784v4.48h8.064v2.133h-10.539zM111.978 23.467v-11.947h8.704l2.133 2.133v9.813h-2.475v-9.771h-5.888v9.771h-2.475zM125.805 26.453v-2.133h7.552v-2.56h-6.187l-2.091-2.091v-6.059l2.261-2.091h8.491v12.629l-2.304 2.304h-7.723zM127.554 13.653v6.016h5.803v-6.016h-5.803zM138.228 23.467v-14.933h2.475v14.933h-2.475zM143.083 23.467v-11.947h2.475v11.947h-2.475zM143.083 10.155v-1.92h2.475v1.92h-2.475zM147.808 23.467v-2.091h8.107v-3.072h-8.107v-4.693l2.091-2.091h8.491v2.091h-8.107v2.901h8.107v4.928l-2.027 2.027h-8.555zM160.644 23.467v-14.933h2.475v2.987h6.229l2.133 2.133v9.813h-2.475v-9.813h-5.888v9.813h-2.475z"></path>
</symbol>
<symbol id="icon-gaze_seeklogo" viewBox="0 0 90 32">
<path fill="#f1f1ea" style="fill: var(--color4, #f1f1ea)" d="M46.395 2.928h-3.268v-2.904h10.305v2.892h-3.268v8.178h-3.769v-8.166z"></path>
<path fill="#f1f1ea" style="fill: var(--color4, #f1f1ea)" d="M65.406 0.025v11.082h-3.768v-4.089h-3.464v4.077h-3.768v-11.070h3.768v3.92h3.476v-3.92h3.756z"></path>
<path fill="#f1f1ea" style="fill: var(--color4, #f1f1ea)" d="M76.52 8.288v2.819h-9.281v-11.082h9.074v2.819h-5.378v1.294h4.72v2.686h-4.72v1.452h5.586v0.012z"></path>
<path fill="#f1f1ea" style="fill: var(--color4, #f1f1ea)" d="M51.358 20.847h3.269v4.682c-0.659 0.46-1.427 0.798-2.293 1.040-0.878 0.242-1.732 0.363-2.573 0.363-1.195 0-2.256-0.242-3.207-0.738s-1.683-1.174-2.22-2.057c-0.537-0.883-0.805-1.875-0.805-3 0-1.113 0.268-2.117 0.805-3s1.293-1.561 2.244-2.057c0.964-0.496 2.049-0.738 3.256-0.738 1.098 0 2.073 0.181 2.939 0.544s1.585 0.895 2.159 1.585l-2.39 2.129c-0.707-0.811-1.537-1.222-2.5-1.222-0.829 0-1.488 0.254-1.976 0.738-0.488 0.496-0.732 1.174-0.732 2.020 0 0.835 0.244 1.5 0.732 2.008s1.134 0.762 1.939 0.762c0.476 0 0.939-0.085 1.366-0.266v-2.795h-0.012z"></path>
<path fill="#f1f1ea" style="fill: var(--color4, #f1f1ea)" d="M63.846 24.755h-4.244l-0.744 1.936h-3.829l4.878-11.082h3.695l4.878 11.082h-3.89l-0.744-1.936zM62.809 22.069l-1.086-2.783-1.085 2.783h2.171z"></path>
<path fill="#f1f1ea" style="fill: var(--color4, #f1f1ea)" d="M78.957 23.787v2.892h-10.257v-2.299l5.11-5.892h-4.939v-2.879h9.842v2.299l-5.11 5.892h5.354v-0.012z"></path>
<path fill="#f1f1ea" style="fill: var(--color4, #f1f1ea)" d="M89.334 23.871v2.819h-9.281v-11.082h9.074v2.819h-5.379v1.294h4.72v2.686h-4.72v1.452h5.586v0.012z"></path>
<path fill="#f1f1ea" style="fill: var(--color4, #f1f1ea)" d="M10.5 0v6.279h-10.5v20.41h3.756v5.323l7.513-5.311h17.098v-5.771l6.744 4.755v-5.275h3.756v-20.41h-28.367zM28.806 13.889c-0.171 0.206-4.22 5.154-9.366 5.154s-9.196-4.948-9.366-5.154c-0.171-0.206-0.171-0.52 0-0.726s4.22-5.154 9.366-5.154c5.147 0 9.196 4.948 9.366 5.154s0.171 0.52 0 0.726z"></path>
<path fill="#f1f1ea" style="fill: var(--color4, #f1f1ea)" d="M19.442 17.119c-2 0-3.622-1.609-3.622-3.593s1.622-3.605 3.622-3.605c2 0 3.622 1.609 3.622 3.593s-1.622 3.605-3.622 3.605z"></path>
</symbol>
<symbol id="icon-forbes" viewBox="0 0 119 32">
<path fill="#f1f1ea" style="fill: var(--color4, #f1f1ea)" d="M67.568 10.785c0-3.437 0.060-6.637 0.239-9.6l-9.124 1.718v0.83l0.895 0.119c0.656 0.059 1.073 0.296 1.312 0.652 0.239 0.415 0.417 1.007 0.537 1.896 0.119 1.719 0.239 5.63 0.179 11.793 0 6.104-0.060 9.956-0.179 11.437 3.28 0.711 5.844 1.007 7.753 1.007 3.578 0 6.381-1.007 8.409-3.081 2.028-2.015 3.101-4.859 3.101-8.356 0-2.785-0.775-5.096-2.326-6.933s-3.519-2.726-5.844-2.726c-1.551 0-3.161 0.415-4.95 1.244zM67.747 29.037c-0.119-1.896-0.239-7.585-0.239-16.889 0.537-0.178 1.252-0.296 2.147-0.296 1.431 0 2.564 0.711 3.399 2.193s1.252 3.259 1.252 5.511c0 2.785-0.477 5.037-1.431 6.933-0.954 1.837-2.147 2.785-3.638 2.785-0.477-0.119-0.954-0.178-1.491-0.237zM24.451 1.777h-23.855v1.185l1.252 0.119c0.954 0.178 1.61 0.533 2.028 1.067 0.417 0.593 0.656 1.541 0.716 2.844 0.477 6.4 0.477 12.385 0 17.896-0.119 1.304-0.358 2.252-0.716 2.844-0.417 0.593-1.073 0.948-2.028 1.067l-1.252 0.178v1.185h15.386v-1.185l-1.61-0.119c-0.393-0.033-0.775-0.144-1.124-0.327s-0.656-0.435-0.904-0.739c-0.417-0.593-0.656-1.541-0.716-2.844-0.179-2.37-0.298-5.096-0.298-8.119l3.22 0.059c1.729 0.059 2.922 1.363 3.519 3.97h1.193v-9.659h-1.193c-0.596 2.548-1.729 3.852-3.519 3.911l-3.22 0.059c0-5.333 0.119-9.126 0.298-11.437h4.711c3.34 0 5.606 2.133 6.918 6.4l1.431-0.415-0.239-7.941zM21.648 20.029c0 3.081 0.895 5.63 2.624 7.645s4.294 2.963 7.514 2.963c3.22 0 5.844-1.007 7.753-3.081 1.908-2.015 2.803-4.563 2.803-7.645s-0.895-5.63-2.624-7.644c-1.729-2.015-4.294-2.963-7.514-2.963s-5.844 1.007-7.753 3.081c-1.908 2.015-2.803 4.563-2.803 7.644zM34.947 13.274c0.716 1.718 1.014 3.97 1.014 6.696 0 6.281-1.312 9.363-3.876 9.363-1.312 0-2.326-0.889-3.041-2.667s-1.014-4.030-1.014-6.696c0-6.222 1.312-9.304 3.876-9.304 1.312-0.059 2.326 0.83 3.041 2.607zM85.34 27.674c1.968 1.956 4.473 2.963 7.455 2.963 1.849 0 3.459-0.355 4.89-1.126 1.431-0.711 2.564-1.6 3.34-2.667l-0.596-0.711c-1.312 1.007-2.803 1.481-4.532 1.481-2.385 0-4.234-0.77-5.487-2.37-1.312-1.6-1.908-3.615-1.789-6.222h12.762c0-2.844-0.716-5.156-2.207-6.993-1.491-1.778-3.578-2.667-6.262-2.667-3.34 0-5.904 1.067-7.753 3.141s-2.743 4.622-2.743 7.644c0 3.081 0.954 5.57 2.922 7.526zM89.753 12.799c0.656-1.422 1.491-2.133 2.624-2.133 1.789 0 2.684 2.252 2.684 6.815l-6.321 0.118c0.060-1.778 0.358-3.378 1.014-4.8zM117.424 10.429c-1.61-0.711-3.638-1.126-6.083-1.126-2.505 0-4.473 0.652-5.964 1.896s-2.266 2.785-2.266 4.622c0 1.6 0.477 2.845 1.372 3.733s2.326 1.659 4.175 2.311c1.67 0.593 2.863 1.185 3.459 1.719 0.596 0.593 0.954 1.244 0.954 2.133 0 0.83-0.298 1.6-0.954 2.193-0.596 0.652-1.431 0.948-2.505 0.948-2.624 0-4.592-1.896-5.964-5.689l-1.014 0.296 0.239 5.926c2.147 0.83 4.532 1.244 7.156 1.244 2.743 0 4.831-0.593 6.381-1.837 1.551-1.185 2.326-2.904 2.326-5.037 0-1.422-0.358-2.607-1.133-3.496s-2.028-1.659-3.817-2.37c-1.968-0.711-3.34-1.363-4.055-1.956s-1.073-1.304-1.073-2.193c0-0.889 0.239-1.6 0.775-2.193s1.193-0.83 2.028-0.83c2.385 0 4.115 1.719 5.188 5.096l1.014-0.296-0.239-5.096zM60.054 9.896c-0.835-0.415-1.729-0.593-2.743-0.593s-2.028 0.415-3.161 1.244c-1.133 0.83-1.968 1.956-2.624 3.496l0.060-4.741-9.065 1.778v0.83l0.895 0.059c1.133 0.119 1.789 1.007 1.908 2.607 0.358 3.674 0.358 7.585 0 11.733-0.119 1.6-0.775 2.43-1.908 2.607l-0.895 0.119v1.126h12.643v-1.126l-1.61-0.119c-1.133-0.119-1.789-1.007-1.908-2.607-0.358-3.437-0.417-7.111-0.119-10.904 0.358-0.593 1.133-0.948 2.326-1.067s2.564 0.237 3.996 1.067l2.207-5.511z"></path>
</symbol>
<symbol id="icon-unian" viewBox="0 0 48 32">
<path fill="#f1f1ea" style="fill: var(--color4, #f1f1ea)" d="M47.2 9.6h-1.2c-0.308 0-0.802 0.4-0.8 0.8v8h-3.2v-8c-0.002-0.4-0.4-0.8-0.8-0.8h-1.2c-0.4 0-0.802 0.4-0.8 0.8v20.8c-0.002 0.4 0.398 0.8 0.8 0.8h1.2c0.398 0 0.798-0.4 0.8-0.8v-10h3.2v10c0 0.4 0.4 0.8 0.8 0.8h1.2c0.4 0 0.798-0.4 0.8-0.8v-20.8c-0.002-0.4-0.4-0.8-0.8-0.8z"></path>
<path fill="#f1f1ea" style="fill: var(--color4, #f1f1ea)" d="M30.801 24h3.2c0 0 0.001 6.957 0 7.2-0.001 0.4 0.4 0.8 0.8 0.8 0.701 0 0.8 0 1.2 0s0.799-0.4 0.8-0.8c0-0.115-0.001-19.923-0.001-20 0-1.2-0.4-1.6-1.599-1.6-0.544 0-5.6 0-5.6 0-1.201 0-1.601 0.4-1.6 1.6 0 0 0.001 19.757 0 20-0.001 0.4 0.4 0.8 0.8 0.8s0.801 0 1.2 0c0.399 0 0.799-0.4 0.8-0.8v-7.2zM30.801 12.4h3.2v8.8h-3.2v-8.8z"></path>
<path fill="#f1f1ea" style="fill: var(--color4, #f1f1ea)" d="M23.315 32h1.371c0.457 0 0.912-0.4 0.914-0.8v-12l-3.2 6.4 0.002 5.6c-0.002 0.4 0.457 0.8 0.914 0.8z"></path>
<path fill="#f1f1ea" style="fill: var(--color4, #f1f1ea)" d="M24.686 9.6h-1.371c-0.457 0-0.915 0.4-0.914 0.8v9.6l3.197-6.4 0.001-3.2c-0.001-0.4-0.457-0.8-0.914-0.8z"></path>
<path fill="#f1f1ea" style="fill: var(--color4, #f1f1ea)" d="M27.2 2.4h-6.4v0.8h6.4v-0.8z"></path>
<path fill="#f1f1ea" style="fill: var(--color4, #f1f1ea)" d="M27.2 1.6c0-1.2-0.4-1.6-1.2-1.6h-4c-0.8 0-1.2 0.4-1.2 1.6h6.4z"></path>
<path fill="#f1f1ea" style="fill: var(--color4, #f1f1ea)" d="M27.2 4h-6.4v0.8h6.4v-0.8z"></path>
<path fill="#f1f1ea" style="fill: var(--color4, #f1f1ea)" d="M20.8 5.6c0 1.6 0.4 2 1.2 2h4c0.8 0 1.2-0.4 1.2-2h-6.4z"></path>
<path fill="#f1f1ea" style="fill: var(--color4, #f1f1ea)" d="M19.2 9.6h-1.2c-0.308 0-0.802 0.4-0.8 0.8v8h-3.2v-8c-0.002-0.4-0.4-0.8-0.8-0.8h-1.2c-0.4 0-0.802 0.4-0.8 0.8v20.8c-0.002 0.4 0.398 0.8 0.8 0.8h1.2c0.398 0 0.798-0.4 0.8-0.8v-10h3.2v10c0 0.4 0.4 0.8 0.8 0.8h1.2c0.4 0 0.798-0.4 0.8-0.8v-20.8c-0.002-0.4-0.4-0.8-0.8-0.8z"></path>
<path fill="#f1f1ea" style="fill: var(--color4, #f1f1ea)" d="M7.997 9.6h-1.2c-0.401 0-0.8 0.4-0.8 0.8v10.8h-3.199v-10.8c-0.002-0.4-0.402-0.8-0.8-0.8h-1.2c-0.402 0-0.8 0.4-0.8 0.8v12c0 1.2 0.397 1.6 1.599 1.6h4.399v5.2h-3.199v-1.2c0-0.4-0.402-0.8-0.8-0.8h-1.2c-0.402 0-0.8 0.4-0.8 0.8 0 0 0.001 2 0 2.4-0.002 1.2 0.397 1.6 1.599 1.6 0.798 0 5.599 0 5.599 0 1.199 0 1.602-0.4 1.599-1.6l0.003-20c0-0.4-0.403-0.8-0.803-0.8z"></path>
</symbol>
<symbol id="icon-insider" viewBox="0 0 99 32">
<path fill="#f1f1ea" style="fill: var(--color4, #f1f1ea)" d="M28.028 3.369c0 2.053 1.26 2.895 2.887 3.526l1.785 0.632c1.102 0.421 1.732 0.842 1.732 1.789 0 1.105-0.997 1.632-2.362 1.632-1.417 0-2.782-0.526-3.884-1.421v2.211c0.892 0.632 2.257 1.105 3.884 1.105 2.519 0 4.409-1.263 4.409-3.526 0-1.789-0.892-2.842-2.834-3.632l-1.995-0.737c-1.050-0.368-1.627-0.737-1.627-1.632 0-1 0.892-1.474 2.152-1.474 1.417 0 2.572 0.579 3.622 1.368v-2.158c-0.997-0.632-2.257-1-3.622-1-2.257-0.053-4.146 1.158-4.146 3.316z"></path>
<path fill="#f1f1ea" style="fill: var(--color4, #f1f1ea)" d="M90.75 3.316c0 2.053 1.26 2.895 2.887 3.526l1.785 0.632c1.102 0.421 1.732 0.842 1.732 1.789 0 1.105-0.997 1.632-2.362 1.632-1.417 0-2.782-0.526-3.884-1.421v2.211c0.892 0.632 2.257 1.105 3.884 1.105 2.519 0 4.409-1.263 4.409-3.526 0-1.789-0.892-2.842-2.834-3.632l-1.995-0.737c-1.050-0.368-1.627-0.737-1.627-1.632 0-1 0.892-1.474 2.152-1.474 1.417 0 2.572 0.579 3.622 1.368v-2.158c-0.997-0.632-2.257-1-3.622-1-2.257 0-4.146 1.158-4.146 3.316z"></path>
<path fill="#f1f1ea" style="fill: var(--color4, #f1f1ea)" d="M78.153 3.316c0 2.053 1.26 2.895 2.887 3.526l1.785 0.632c1.102 0.421 1.732 0.842 1.732 1.789 0 1.105-0.997 1.632-2.362 1.632-1.417 0-2.782-0.526-3.884-1.421v2.211c0.892 0.632 2.257 1.105 3.884 1.105 2.519 0 4.409-1.263 4.409-3.526 0-1.789-0.892-2.842-2.834-3.632l-1.994-0.737c-1.050-0.368-1.627-0.737-1.627-1.632 0-1 0.892-1.474 2.152-1.474 1.417 0 2.572 0.579 3.622 1.368v-2.158c-0.997-0.632-2.257-0.947-3.622-0.947-2.257-0.053-4.147 1.105-4.147 3.263z"></path>
<path fill="#f1f1ea" style="fill: var(--color4, #f1f1ea)" d="M65.923 0.211v12.368h7.453v-1.895h-5.406v-3.842h4.829v-1.842h-4.829v-3h5.406v-1.842h-7.453v0.053z"></path>
<path fill="#f1f1ea" style="fill: var(--color4, #f1f1ea)" d="M1.994 7.106h2.624c1.365 0 2.152 0.684 2.152 1.842 0 1.105-0.787 1.842-2.152 1.842h-2.624v-3.684zM1.994 2.053h2.257c1.417 0 2.152 0.526 2.152 1.632 0 1.158-0.787 1.684-2.152 1.684h-2.257v-3.316zM0 0.211v12.368h4.724c2.572 0 4.146-1.211 4.146-3.579 0-1.316-0.84-2.474-1.995-2.842 0.892-0.316 1.627-1.316 1.627-2.632 0-2.211-1.627-3.368-4.146-3.368l-4.356 0.053z"></path>
<path fill="#f1f1ea" style="fill: var(--color4, #f1f1ea)" d="M43.931 0.211h-2.099v12.368h2.099v-12.368z"></path>
<path fill="#f1f1ea" style="fill: var(--color4, #f1f1ea)" d="M21.152 0.211v7.211c0 2.368-0.997 3.474-2.834 3.474s-2.834-1.105-2.834-3.474v-7.211h-2.1v7.421c0 3.368 1.995 5.105 4.934 5.105s4.934-1.737 4.934-5.105v-7.421h-2.099z"></path>
<path fill="#f1f1ea" style="fill: var(--color4, #f1f1ea)" d="M58.365 0.211v7.895l-8.503-8.105v12.579h2.047v-8.053l8.45 8.263v-12.579h-1.994z"></path>
<path fill="#f1f1ea" style="fill: var(--color4, #f1f1ea)" d="M31.072 22.632c0 2 1.26 2.842 2.834 3.474l1.785 0.632c1.102 0.421 1.732 0.789 1.732 1.737 0 1.105-0.997 1.632-2.362 1.632-1.417 0-2.782-0.526-3.884-1.368v2.158c0.892 0.632 2.257 1.105 3.884 1.105 2.467 0 4.356-1.211 4.356-3.421 0-1.79-0.892-2.842-2.782-3.526l-1.942-0.684c-0.997-0.368-1.627-0.684-1.627-1.632 0-1 0.892-1.474 2.152-1.474 1.417 0 2.572 0.526 3.569 1.316v-2.105c-0.997-0.632-2.257-1-3.622-1-2.204-0.158-4.094 1-4.094 3.158z"></path>
<path fill="#f1f1ea" style="fill: var(--color4, #f1f1ea)" d="M46.923 19.527h-2.1v12.158h2.1v-12.158z"></path>
<path fill="#f1f1ea" style="fill: var(--color4, #f1f1ea)" d="M9.5 19.527h-2.099v12.158h2.099v-12.158z"></path>
<path fill="#f1f1ea" style="fill: var(--color4, #f1f1ea)" d="M55.059 21.369h2.572c2.572 0 3.937 1.632 3.937 4.263s-1.365 4.263-3.937 4.263h-2.572v-8.526zM52.959 19.527v12.158h4.671c3.622 0 5.931-2.368 5.931-6.105 0-3.684-2.362-6.105-5.931-6.105h-4.671v0.053z"></path>
<path fill="#f1f1ea" style="fill: var(--color4, #f1f1ea)" d="M67.97 19.527v12.158h7.401v-1.895h-5.354v-3.737h4.829v-1.79h-4.829v-2.895h5.354v-1.842h-7.401z"></path>
<path fill="#f1f1ea" style="fill: var(--color4, #f1f1ea)" d="M83.664 21.316h2.362c1.365 0 2.152 0.737 2.152 1.895 0 1.105-0.787 1.895-2.152 1.895h-2.362v-3.79zM81.564 19.527v12.158h2.099v-4.947h1.47l4.251 4.947h2.362l-4.356-5.053c1.942-0.316 2.834-1.474 2.834-3.526 0-2.368-1.627-3.632-4.146-3.632l-4.514 0.053z"></path>
<path fill="#f1f1ea" style="fill: var(--color4, #f1f1ea)" d="M15.431 31.685h1.994v-7.895l8.398 8.105v-12.369h-1.994v7.79l-8.398-8v12.368z"></path>
</symbol>
<symbol id="icon-InstagramLogo" viewBox="0 0 32 32">
<path d="M16 10c-1.187 0-2.347 0.352-3.333 1.011s-1.756 1.596-2.21 2.693c-0.454 1.096-0.573 2.303-0.341 3.467s0.803 2.233 1.642 3.072 1.908 1.411 3.072 1.642c1.164 0.232 2.37 0.113 3.467-0.341s2.033-1.223 2.693-2.21c0.659-0.987 1.011-2.147 1.011-3.333-0.002-1.591-0.634-3.116-1.759-4.241s-2.65-1.758-4.241-1.759zM16 19c-0.593 0-1.173-0.176-1.667-0.506s-0.878-0.798-1.105-1.346c-0.227-0.548-0.287-1.151-0.171-1.733s0.402-1.117 0.821-1.536 0.954-0.705 1.536-0.821c0.582-0.116 1.185-0.056 1.733 0.171s1.017 0.612 1.346 1.105c0.33 0.493 0.506 1.073 0.506 1.667 0 0.796-0.316 1.559-0.879 2.121s-1.326 0.879-2.121 0.879zM22 2.5h-12c-1.988 0.002-3.895 0.793-5.301 2.199s-2.197 3.312-2.199 5.301v12c0.002 1.988 0.793 3.895 2.199 5.301s3.312 2.197 5.301 2.199h12c1.988-0.002 3.895-0.793 5.301-2.199s2.197-3.312 2.199-5.301v-12c-0.002-1.988-0.793-3.895-2.199-5.301s-3.312-2.197-5.301-2.199zM26.5 22c0 1.194-0.474 2.338-1.318 3.182s-1.988 1.318-3.182 1.318h-12c-1.193 0-2.338-0.474-3.182-1.318s-1.318-1.988-1.318-3.182v-12c0-1.193 0.474-2.338 1.318-3.182s1.989-1.318 3.182-1.318h12c1.194 0 2.338 0.474 3.182 1.318s1.318 1.989 1.318 3.182v12zM24.5 9.5c0 0.396-0.117 0.782-0.337 1.111s-0.532 0.585-0.898 0.737c-0.365 0.151-0.768 0.191-1.156 0.114s-0.744-0.268-1.024-0.547-0.47-0.636-0.547-1.024c-0.077-0.388-0.038-0.79 0.114-1.156s0.408-0.678 0.737-0.898c0.329-0.22 0.716-0.337 1.111-0.337 0.53 0 1.039 0.211 1.414 0.586s0.586 0.884 0.586 1.414z"></path>
</symbol>
<symbol id="icon-At" viewBox="0 0 32 32">
<path d="M16 2.5c-3.58 0-7.014 1.422-9.546 3.954s-3.954 5.965-3.954 9.546c0 3.58 1.422 7.014 3.954 9.546s5.965 3.954 9.546 3.954c2.784 0 5.711-0.841 7.83-2.25 0.331-0.22 0.562-0.563 0.641-0.953s-0.001-0.796-0.221-1.127c-0.22-0.331-0.563-0.562-0.953-0.641s-0.796 0.001-1.127 0.221c-1.625 1.079-3.986 1.75-6.169 1.75-2.077 0-4.107-0.616-5.834-1.77s-3.072-2.794-3.867-4.712c-0.795-1.919-1.003-4.030-0.598-6.067s1.405-3.908 2.874-5.376c1.468-1.468 3.339-2.468 5.376-2.874s4.148-0.197 6.067 0.598c1.919 0.795 3.559 2.141 4.712 3.867s1.77 3.757 1.77 5.834c0 1.161-0.209 2.135-0.586 2.744-0.33 0.53-0.75 0.756-1.414 0.756s-1.084-0.226-1.414-0.756c-0.375-0.609-0.586-1.582-0.586-2.744v-5c0-0.36-0.13-0.708-0.365-0.98s-0.561-0.451-0.917-0.504-0.719 0.025-1.023 0.218c-0.304 0.193-0.528 0.489-0.632 0.833-1.031-0.678-2.234-1.048-3.468-1.067s-2.448 0.313-3.5 0.958c-1.052 0.645-1.899 1.577-2.441 2.685s-0.758 2.349-0.621 3.575c0.137 1.227 0.619 2.389 1.392 3.351s1.803 1.684 2.972 2.082c1.168 0.398 2.425 0.455 3.625 0.165s2.291-0.916 3.149-1.804c0.866 1.274 2.18 1.986 3.829 1.986 3.084 0 5-2.49 5-6.5-0.004-3.579-1.428-7.011-3.958-9.542s-5.962-3.954-9.542-3.958zM16 19.5c-0.692 0-1.369-0.205-1.945-0.59s-1.024-0.931-1.289-1.571-0.334-1.343-0.199-2.022c0.135-0.679 0.468-1.303 0.958-1.792s1.113-0.823 1.792-0.958c0.679-0.135 1.383-0.066 2.022 0.199s1.186 0.713 1.571 1.289c0.385 0.576 0.59 1.252 0.59 1.945 0 0.928-0.369 1.819-1.025 2.475s-1.547 1.025-2.475 1.025z"></path>
</symbol>
<symbol id="icon-Phone" viewBox="0 0 32 32">
<path d="M28 19.349l-5.909-2.649c-0.383-0.165-0.801-0.231-1.215-0.193s-0.814 0.18-1.16 0.412c-0.049 0.032-0.095 0.067-0.14 0.105l-2.789 2.375c-1.625-0.881-3.304-2.546-4.186-4.151l2.383-2.832c0.038-0.046 0.074-0.094 0.106-0.144 0.226-0.345 0.363-0.74 0.399-1.151s-0.030-0.824-0.192-1.203c-0.004-0.007-0.007-0.015-0.010-0.023l-2.637-5.896c-0.217-0.493-0.586-0.903-1.054-1.17s-1.009-0.376-1.544-0.311c-1.815 0.238-3.48 1.129-4.686 2.506s-1.869 3.145-1.866 4.975c0 10.201 8.299 18.5 18.5 18.5 1.83 0.003 3.599-0.661 4.975-1.866s2.267-2.872 2.506-4.686c0.065-0.535-0.044-1.076-0.311-1.544s-0.677-0.837-1.17-1.054zM22 25.499c-4.109-0.005-8.049-1.64-10.955-4.545s-4.54-6.845-4.545-10.955c-0.003-1.036 0.349-2.041 0.996-2.849s1.552-1.37 2.564-1.593l2.353 5.25-2.395 2.853c-0.039 0.046-0.075 0.095-0.107 0.145-0.236 0.361-0.375 0.776-0.403 1.207s0.056 0.86 0.243 1.249c1.177 2.41 3.604 4.82 6.039 6 0.391 0.185 0.823 0.266 1.254 0.234s0.847-0.175 1.207-0.415c0.048-0.033 0.095-0.068 0.139-0.106l2.804-2.384 5.25 2.351c-0.223 1.011-0.785 1.916-1.593 2.564s-1.814 0.999-2.849 0.996z"></path>
</symbol>
<symbol id="icon-Instagram-Icon" viewBox="0 0 32 32">
<path d="M16 10c-1.187 0-2.347 0.352-3.333 1.011s-1.756 1.596-2.21 2.693-0.573 2.303-0.341 3.467c0.232 1.164 0.803 2.233 1.642 3.072s1.908 1.411 3.072 1.642c1.164 0.232 2.37 0.113 3.467-0.341s2.033-1.223 2.693-2.21c0.659-0.987 1.011-2.147 1.011-3.333-0.002-1.591-0.634-3.116-1.759-4.241s-2.65-1.758-4.241-1.759zM16 20c-0.791 0-1.564-0.235-2.222-0.674s-1.171-1.064-1.473-1.795-0.382-1.535-0.228-2.311c0.154-0.776 0.535-1.489 1.095-2.048s1.272-0.94 2.048-1.095c0.776-0.154 1.58-0.075 2.311 0.228s1.356 0.815 1.795 1.473c0.44 0.658 0.674 1.431 0.674 2.222 0 1.061-0.421 2.078-1.172 2.828s-1.768 1.172-2.828 1.172zM22 3h-12c-1.856 0.002-3.635 0.74-4.948 2.052s-2.050 3.092-2.052 4.948v12c0.002 1.856 0.74 3.635 2.052 4.948s3.092 2.050 4.948 2.052h12c1.856-0.002 3.635-0.74 4.948-2.052s2.050-3.092 2.052-4.948v-12c-0.002-1.856-0.74-3.635-2.052-4.948s-3.092-2.050-4.948-2.052zM27 22c0 1.326-0.527 2.598-1.464 3.536s-2.209 1.464-3.536 1.464h-12c-1.326 0-2.598-0.527-3.536-1.464s-1.464-2.209-1.464-3.536v-12c0-1.326 0.527-2.598 1.464-3.536s2.209-1.464 3.536-1.464h12c1.326 0 2.598 0.527 3.536 1.464s1.464 2.209 1.464 3.536v12zM24 9.5c0 0.297-0.088 0.587-0.253 0.833s-0.399 0.439-0.673 0.552c-0.274 0.114-0.576 0.143-0.867 0.085s-0.558-0.201-0.768-0.411c-0.21-0.21-0.353-0.477-0.41-0.768s-0.028-0.593 0.085-0.867 0.306-0.508 0.552-0.673c0.247-0.165 0.537-0.253 0.833-0.253 0.398 0 0.779 0.158 1.061 0.439s0.439 0.663 0.439 1.061z"></path>
</symbol>
<symbol id="icon-nato" viewBox="0 0 32 32">
<path d="M31.721 15.635l-4.079-0.907c-0.586-5.47-4.925-9.811-10.389-10.398l-0.907-4.085c-0.072-0.325-0.622-0.325-0.694 0l-0.905 4.076c-5.466 0.585-9.804 4.936-10.39 10.408l-4.079 0.907c-0.163 0.036-0.279 0.181-0.279 0.348s0.116 0.311 0.278 0.348l4.079 0.907c0.586 5.471 4.924 9.817 10.389 10.403l0.906 4.081c0.036 0.163 0.181 0.279 0.347 0.279s0.311-0.116 0.347-0.279l0.907-4.087c5.464-0.587 9.802-4.927 10.388-10.397l4.079-0.907c0.163-0.036 0.278-0.181 0.278-0.348s-0.116-0.311-0.279-0.348zM26.923 14.567l-7.78-1.731-1.728-7.784c4.946 0.639 8.871 4.563 9.508 9.515zM14.586 5.051l-1.728 7.786-7.778 1.73c0.638-4.952 4.56-8.878 9.506-9.516zM13.042 13.525l2.455 2.458h-13.503l11.048-2.458zM5.080 17.398l7.778 1.73 1.729 7.788c-4.947-0.638-8.869-4.566-9.506-9.518zM16 30.003l-2.455-11.060 2.455-2.457v13.517zM16 15.479v-13.517l2.455 11.060-2.455 2.457zM17.416 26.907l1.727-7.779 7.78-1.731c-0.637 4.951-4.561 8.87-9.507 9.509zM18.957 18.44l-2.455-2.458h13.503l-11.048 2.458z"></path>
</symbol>
<symbol id="icon-chevron" viewBox="0 0 32 32">
<path d="M32 15.257v1.486l-12.624 15.257h-7.046l12.966-16-12.966-16h7.046l12.624 15.257zM19.67 15.257v1.486l-12.624 15.257h-7.046l12.966-16-12.966-16h7.046l12.624 15.257z"></path>
</symbol>
<symbol id="icon-splide-prev" viewBox="0 0 18 16">
<path d="M0 8.24107V7.75893L5.64809 0.5H10.7155L4.98827 8L10.7155 15.5H5.64809L0 8.24107ZM7.28446 8.24107V7.75893L12.9326 0.5H18L12.2727 8L18 15.5H12.9326L7.28446 8.24107Z" fill="#7E7E13" />
</symbol>
<symbol id="icon-splide-next" viewBox="0 0 18 16">
<path d="M18 8.24107V7.75893L12.3519 0.5H7.28446L13.0117 8L7.28446 15.5H12.3519L18 8.24107ZM10.7155 8.24107V7.75893L5.06745 0.5H0L5.72727 8L0 15.5H5.06745L10.7155 8.24107Z" fill="#7E7E13" />
</symbol>
<symbol id="icon-play" viewBox="0 0 30 30">
<polygon points="27,15 4.019,27.990 4.019,2.010" fill="white" />
</symbol>
<symbol id="icon-close" viewBox="0 0 24 24">
<path d="M18 6L6 18M6 6L18 18" stroke="#1A1B15" stroke-width="2" stroke-linecap="round" stroke-linejoin="round"/>
</symbol>
<symbol id="icon-faq-arrow" viewBox="0 0 15 19">
<path d="M7.25893 18.5H7.74107L15 12.8519V7.78446L7.5 13.5117L0 7.78446L0 12.8519L7.25893 18.5ZM7.25893 11.2155H7.74107L15 5.56745V0.5L7.5 6.22727L0 0.5L0 5.56745L7.25893 11.2155Z" fill="#7E7E13" />
</symbol>
<symbol id="icon-chevron-small" viewBox="0 0 22 22">
<path d="M17 11.2446V11.7554L12.6606 17H10.2385L14.6957 11.5L10.2385 6H12.6606L17 11.2446ZM12.7615 11.2446V11.7554L8.42202 17H6L10.4572 11.5L6 6H8.42202L12.7615 11.2446Z" fill="#ECE014" />
</symbol>
<symbol id="icon-copy" viewBox="0 0 24 24">
<path d="M16.875 6H3.75C3.45163 6 3.16548 6.11853 2.9545 6.3295C2.74353 6.54048 2.625 6.82663 2.625 7.125V20.25C2.625 20.5484 2.74353 20.8345 2.9545 21.0455C3.16548 21.2565 3.45163 21.375 3.75 21.375H16.875C17.1734 21.375 17.4595 21.2565 17.6705 21.0455C17.8815 20.8345 18 20.5484 18 20.25V7.125C18 6.82663 17.8815 6.54048 17.6705 6.3295C17.4595 6.11853 17.1734 6 16.875 6ZM15.75 19.125H4.875V8.25H15.75V19.125ZM21.375 3.75V16.875C21.375 17.1734 21.2565 17.4595 21.0455 17.6705C20.8345 17.8815 20.5484 18 20.25 18C19.9516 18 19.6655 17.8815 19.4545 17.6705C19.2435 17.4595 19.125 17.1734 19.125 16.875V4.875H7.125C6.82663 4.875 6.54048 4.75647 6.3295 4.5455C6.11853 4.33452 6 4.04837 6 3.75C6 3.45163 6.11853 3.16548 6.3295 2.9545C6.54048 2.74353 6.82663 2.625 7.125 2.625H20.25C20.5484 2.625 20.8345 2.74353 21.0455 2.9545C21.2565 3.16548 21.375 3.45163 21.375 3.75Z" fill="#ECE014"></path>
</symbol>
<symbol id="icon-check" viewBox="0 0 24 25">
<path d="M0.410156 13.91L6.00016 19.5L7.41016 18.08L1.83016 12.5M22.2402 6.08L11.6602 16.67L7.50016 12.5L6.07016 13.91L11.6602 19.5L23.6602 7.5M18.0002 7.5L16.5902 6.08L10.2402 12.43L11.6602 13.84L18.0002 7.5Z" fill="#ECE014"></path>
</symbol>
<symbol id="icon-resize" viewBox="0 0 16 16">
<g clip-path="url(#clip-resize)">
<path d="M1 13L13 1" stroke="#61625A" stroke-opacity="0.25" stroke-width="1.5" />
<path d="M8 15L15 8" stroke="#61625A" stroke-opacity="0.25" stroke-width="1.5" />
</g>
<defs><clipPath id="clip-resize"><rect width="16" height="16" fill="white" /></clipPath></defs>
</symbol>
<symbol id="icon-download" viewBox="0 0 20 20">
<path d="M10.0007 13.3333L5.83398 9.16665L7.00065 7.95831L9.16732 10.125V3.33331H10.834V10.125L13.0007 7.95831L14.1673 9.16665L10.0007 13.3333ZM3.33398 16.6666V12.5H5.00065V15H15.0007V12.5H16.6673V16.6666H3.33398Z" fill="#1A1B15"></path>
</symbol>
</defs>
</svg>
