<svg xmlns="http://www.w3.org/2000/svg" version="1.1" xmlns:xlink="http://www.w3.org/1999/xlink" width="64" height="64"><svg width="64" height="64" viewBox="0 0 64 64" fill="none" xmlns="http://www.w3.org/2000/svg">
<circle cx="32" cy="32" r="32" fill="#FEFFE0"></circle>
<path d="M31.7363 17.376L32.6992 19.0166L33.5098 20.7236L34.0967 22.3291L34.4688 23.7451L34.6758 24.9766L34.7646 26.1768L34.7451 27.1982L34.6934 27.7676L34.6113 28.3271L34.4248 29.1738L34.2246 29.8213L33.9541 30.5146L33.4141 31.623L32.9551 32.3916L32.4355 33.1328L32.3125 33.375L32.5059 33.6025L32.9062 34.1172L33.4238 34.9258L33.9385 35.8916L34.4912 37.1123L34.6191 37.3984L34.7305 37.3467L34.9639 37.1963L35.6348 36.7676L37.8799 35.2803L38.2275 34.999L38.5312 34.7217L38.9043 34.3311L39.1475 34.0244L39.3232 33.7559L39.4668 33.4854L39.5781 33.208L39.6396 33.0049L39.6953 32.7529L39.7207 32.5469L39.7334 32.1738L39.7285 32.0283L39.7168 31.8818L39.6924 31.7178L39.6572 31.6426L39.6104 31.5898L39.5332 31.5156L39.4531 31.4492L39.3594 31.3896L39.2598 31.3389L39.1543 31.2988L39.042 31.2686L38.9238 31.249L38.7568 31.2383L38.5811 31.2451L38.3945 31.2695L38.1475 31.3252L37.832 31.4297L37.4971 31.5732L37.1426 31.7568L36.7217 32.0098L36.2568 32.3496L35.9619 32.5713L35.9443 32.457L35.9131 32.123L35.7568 29.3867L35.8203 27.1729L36.0244 25.6025L36.2559 24.5586L36.5527 23.6309L36.8086 23.0322L37.0918 22.4795L37.4316 21.9502L37.7773 21.5068L38.1523 21.1055L38.5117 20.7832L38.9326 20.4727L39.3057 20.25L39.6982 20.0596L40.1582 19.8867L40.6396 19.7539L40.9395 19.6953L41.2471 19.6514L41.4824 19.6309L41.8242 19.626L42.376 19.6436L42.7529 19.7002L43.2666 19.8252L43.7197 19.9502L43.6816 20.0752L43.5947 20.3105L42.9424 22.1787L41.8848 26.2861L41.4541 28.7656L41.2129 31.1387L41.1621 32.8945L41.207 34.5195L41.4248 36.4775L41.6631 37.7158L42.002 38.9883L42.3955 40.1309L42.4873 40.375L42.5225 40.4785L42.4287 40.4805L42.2412 40.4814L41.96 40.4873L41.6885 40.5195L39.5273 40.9307L37.6621 41.4473L35.9688 42.0723L35.3555 42.3584L34.7793 42.6562L34.4258 42.8652L34.3359 42.9346L34.1982 43.0273L33.5684 43.4834L33.1123 43.8828L32.7588 44.2549L32.4893 44.5957L32.3428 44.8135L32.1885 45.0781L32.043 45.3799L31.9102 45.7471L31.6914 46.4297L31.5049 47L31.4658 46.8896L31.3877 46.624L31.2061 46.0391L31.0352 45.5781L30.8184 45.0918L30.7031 44.8867L30.5674 44.6807L30.2744 44.2988L29.8623 43.8613L29.3857 43.4463L28.7471 42.9883L27.9082 42.5L26.8223 41.9961L25.5879 41.5371L23.4473 40.9316L22.4072 40.708L21.2861 40.5195L21.0137 40.4873L20.7324 40.4814L20.4824 40.4785L20.7617 39.6338L21.1846 38.2432L21.4893 36.8389L21.7051 35.2852L21.7959 34.0332L21.8145 32.6592L21.7725 31.2812L21.459 28.3398L20.8975 25.4082L20.0254 22.1572L19.3926 20.3438L19.2549 19.958L19.7588 19.8125L20.2861 19.6846L20.6709 19.6377L21.1387 19.626L21.4902 19.6299L21.7275 19.6514L22.2656 19.7393L22.7803 19.875L23.2158 20.0342L23.6299 20.2285L24.0225 20.459L24.3916 20.7256L24.7646 21.0479L25.1406 21.4395L25.4619 21.8369L25.7783 22.3047L26.1191 22.9238L26.4121 23.6025L26.6875 24.4414L26.9473 25.584L27.0703 26.3818L27.1611 27.2393L27.2188 28.6611L27.1113 31.5381L27.0547 32.1943L27.0166 32.5703L26.9111 32.4941L26.708 32.3408L26.0957 31.9121L25.6494 31.6562L25.3145 31.499L24.9824 31.374L24.7061 31.2949L24.5146 31.2578L24.375 31.2422L24.2363 31.2373L24.0967 31.2432L23.9639 31.2617L23.8564 31.2881L23.7539 31.3232L23.6572 31.3672L23.5654 31.4209L23.4795 31.4844L23.3975 31.5566L23.3154 31.6416L23.2715 31.7725L23.25 32L23.2422 32.2979L23.2568 32.583L23.3047 32.8789L23.3691 33.1279L23.457 33.3672L23.5693 33.6035L23.6592 33.7617L23.7803 33.9502L24.0234 34.2764L24.2041 34.4805L24.4385 34.7168L24.9199 35.1416L25.7715 35.7607L27.1699 36.6602L28.2471 37.3496L28.4014 37.1445L29.2139 35.4023L29.5469 34.8086L29.9219 34.2197L30.2217 33.8057L30.5908 33.3711L30.6338 33.3203L30.4756 33.1104L29.8477 32.1973L29.3271 31.2812L28.874 30.291L28.5234 29.291L28.2744 28.3184L28.0967 27.2549L28.0312 26.5967L28.0039 25.8984L28.0342 24.7695L28.0938 24.168L28.1855 23.5518L28.3525 22.79L28.5986 22.0215L28.8535 21.3936L29.168 20.7295L29.8711 19.4648L30.918 17.8359L31.3418 17.1992L31.4766 17L31.7363 17.376ZM51.3408 36.8223L51.3115 36.9717L51.0361 38.0576L50.7256 38.9365L50.585 39.2588L50.4395 39.5518L50.2012 39.957L50.0059 40.2266L49.8145 40.4443L49.6699 40.584L49.4922 40.7354L49.2373 40.918L48.9648 41.0791L48.6836 41.2129L48.4795 41.291L48.2539 41.3564L48.1523 41.3809V41.4541L48.1484 41.5244L48.127 41.6709L48.085 41.8428L48.0205 42.0322L47.8682 42.3721L47.6172 42.8252L47.4385 43.0957L47.2598 43.3262L46.5596 44.0459L45.4443 45.0771L44.5879 45.8262L44.6748 45.3916L44.8057 44.8525L45.1074 43.9014L45.3818 43.2461L45.6328 42.7754L45.792 42.5254L45.9863 42.2646L46.1406 42.0947L46.3711 41.8857L46.6562 41.6709L46.9297 41.499L47.0674 41.4258L47.2285 41.3516L47.4443 41.2705L47.6445 41.208L47.7529 41.1807L47.793 41.1709L47.7998 41.043L47.8096 40.9355L47.835 40.8047L47.8848 40.6279L47.9746 40.3945L48.1084 40.1143L48.3584 39.6797L48.5391 39.416L48.7256 39.1797L49.2676 38.6279L49.9482 37.9756L51.3545 36.7422L51.3408 36.8223ZM11.7354 36.8252L11.9482 37.0107L13.415 38.3389L14.3115 39.251L14.4873 39.4824L14.6963 39.8086L14.9004 40.1807L15.0518 40.5186L15.1211 40.7246L15.1543 40.8643L15.168 40.9521L15.1748 41.0361L15.2275 41.1816L15.5527 41.2773L15.7148 41.3389L15.8887 41.418L16.1787 41.5771L16.4512 41.7617L16.7021 41.9697L16.8701 42.1338L17.043 42.3301L17.248 42.6094L17.502 43.0312L17.7949 43.6338L18.0625 44.3203L18.3203 45.1484L18.4658 45.7432L18.1172 45.4775L17.5195 44.9795L16.3252 43.9297L15.6396 43.2334L15.501 43.0459L15.2275 42.6006L15.1143 42.3887L15.0107 42.1689L14.9209 41.9336L14.8564 41.7031L14.8301 41.5537L14.8223 41.3828L14.6748 41.3438L14.4199 41.2646L14.1729 41.1631L13.9062 41.0234L13.6465 40.8564L13.4932 40.7422L13.3418 40.6172L13.1523 40.4375L12.9775 40.2383L12.7959 39.9873L12.6504 39.7529L12.4893 39.4531L12.2188 38.8545L11.9482 38.085L11.71 37.1836L11.624 36.7598L11.7354 36.8252ZM28.8389 38.7949L28.7812 38.9307L28.4326 39.8457L28.0869 40.8516L27.8672 41.5498L28.1943 41.7227L28.5732 41.9238L29.3936 42.4307L29.9648 42.8574L30.5156 43.3477L30.7344 43.5615L30.7402 43.2109L30.7588 42.7725L30.8086 42.374L30.9082 41.8818L31.04 41.4277L31.0664 41.3506L31.0039 41.209L30.8066 40.8154L30.5391 40.3867L30.2188 39.9668L29.793 39.5049L29.4482 39.1787L29.0625 38.8477L28.8955 38.7168L28.8389 38.7949ZM34.0127 38.7676L33.8115 38.9316L33.1934 39.4932L32.7471 39.9805L32.4043 40.4326L32.2451 40.6826L32.082 40.9746L31.9395 41.2832L31.9316 41.415L31.9668 41.5254L32.0947 41.9912L32.1885 42.5186L32.2246 42.8857L32.2412 43.3008L32.2451 43.5557L32.3057 43.499L32.4453 43.3613L32.9541 42.9023L33.3203 42.6182L33.7559 42.3174L34.3281 41.9668L34.9033 41.6592L35.0146 41.6006L34.9404 41.1953L34.7236 40.5312L34.1455 38.9482L34.0586 38.7324L34.0127 38.7676ZM13.1816 41.1934L13.4463 41.3828L13.7539 41.5635L13.9648 41.668L14.1943 41.7617L14.3037 41.8076L14.3379 41.915L14.4219 42.1787L14.5107 42.4004L14.624 42.6416L14.7559 42.8857L14.8672 43.0742L14.9111 43.1445L14.8379 43.1797L14.6348 43.1523L14.4385 43.1055L14.251 43.0391L14.0723 42.9541L13.9033 42.8516L13.7471 42.7334L13.6035 42.5996L13.4736 42.4531L13.3594 42.292L13.2617 42.1201L13.1826 41.9375L13.1348 41.7939L13.0986 41.6455L13.084 41.543L13.0635 41.209L13.0674 41.123L13.1816 41.1934ZM49.9062 41.3242L49.8906 41.5645L49.8711 41.6816L49.8486 41.7705L49.8184 41.8701L49.7539 42.0391L49.6729 42.2002L49.5781 42.3525L49.4688 42.4941L49.3477 42.625L49.2139 42.7441L49.0703 42.8516L48.916 42.9453L48.7539 43.0244L48.585 43.0889L48.4092 43.1377L48.2734 43.1631L48.1357 43.1797L48.0557 43.1582L48.2656 42.8057L48.4746 42.374L48.5625 42.1533L48.6279 41.9512L48.6689 41.8047L48.7852 41.7607L49.0771 41.6377L49.3574 41.4893L49.6113 41.3271L49.8633 41.1387L49.9121 41.0996L49.9062 41.3242ZM42.5518 37.1562L44.3486 38.2061L46.8896 39.6914L46.9229 39.6709L47.0703 39.5869L47.2266 39.5156L47.4072 39.4521L47.5967 39.4053L47.7129 39.3857L47.832 39.3721L47.9062 39.3662L47.8311 39.4883L47.5771 39.9434L47.415 40.3115L47.3594 40.4658L47.3076 40.6348L47.2764 40.749L47.1504 40.7959L46.8809 40.9102L46.5693 41.0762L46.3477 41.2168L46.1387 41.3701L46.0449 41.4443L46.0332 41.3047L46.0342 41.209L46.04 41.0996L44.1826 40.0166L42.3242 38.9336L42.291 38.8301L42.0635 37.9971L41.8643 37.0957L41.7988 36.7334L42.5518 37.1562ZM21.1377 36.9531L20.9551 37.8271L20.7295 38.6748L20.6553 38.9307L18.8486 39.9854L16.9883 41.0713L16.9434 41.2334V41.3535L16.9414 41.3828L16.8184 41.3545L16.5469 41.1631L16.3086 41.0186L16.085 40.9023L15.8564 40.8096L15.6953 40.7461L15.6533 40.5732L15.5586 40.3047L15.3877 39.9258L15.168 39.5264L15.083 39.3789L15.2529 39.3857L15.4121 39.4121L15.5732 39.4541L15.75 39.5166L15.8818 39.5752L16.0137 39.6465L16.0859 39.6904L18.6045 38.2207L21.1777 36.7422L21.1377 36.9531ZM22.8955 33.8418L22.8857 33.9531L22.7734 35.0566L22.4248 37.0791L22.0967 38.3535L21.6631 39.6484L21.6426 39.709L21.6406 39.7422L21.8398 39.7764L23.9531 40.2119L25.5459 40.6572L26.9238 41.1436L27.0645 41.2012L27.0996 41.0684L27.5674 39.4482L27.9883 38.2061L28.0195 38.1182L27.6475 37.8242L26.9844 37.3906L25.1816 36.1943L24.3379 35.5342L23.8057 35.0312L23.4492 34.624L23.1895 34.2598L23.0781 34.0771L22.9785 33.8926L22.9141 33.7734L22.8955 33.8418ZM39.9902 33.9053L39.8047 34.2334L39.5859 34.5488L39.3027 34.8877L38.9639 35.2363L38.3252 35.7939L37.4922 36.4072L35.8164 37.5059L35.2217 37.8955L34.8975 38.1152L34.9316 38.2354L35.0352 38.5293L35.8418 41.1836L37.0088 40.791L39.0312 40.2109L41.1406 39.7754L41.3301 39.7412L41.3193 39.6689L41.2949 39.6006L40.8857 38.376L40.5049 36.8672L40.2344 35.3008L40.083 33.8652L40.0732 33.7588L39.9902 33.9053ZM31.4375 34.2744L31.1436 34.5918L30.8848 34.9238L30.2539 35.8721L29.7803 36.7188L29.29 37.7334L29.1826 37.9834L29.2354 38.043L30.0137 38.6816L30.5928 39.2529L31.0156 39.7529L31.4033 40.3125L31.4873 40.4463L31.5703 40.3154L31.8652 39.876L32.2803 39.3652L32.7705 38.8613L33.334 38.3633L33.6465 38.1143L33.7617 38.0254L33.6748 37.8271L33.0654 36.5693L32.4434 35.5029L32.0918 34.9902L31.7783 34.582L31.4814 34.2549L31.4375 34.2744ZM30.5303 20.2695L30.0527 21.8896L29.7744 23.2549L29.6543 24.3086L29.6133 25.499L29.6602 26.7393L29.8096 27.917L30.0586 29.0635L30.4053 30.1631L30.7393 30.9746L31.1221 31.7246L31.4375 32.2402L31.5312 32.1387L31.6621 31.9268L32.0938 31.1172L32.499 30.1611L32.8496 29.0635L33.0254 28.3115L33.166 27.458L33.2451 26.6387L33.2666 25.751L33.2158 24.4658L33.0088 22.9062L32.582 21.0342L32.1406 19.6104L31.4639 17.8379L30.5303 20.2695ZM21.4131 21.1855L21.4199 21.2832L21.4795 21.5029L22.3887 25.5479L22.7207 27.7754L22.9238 30.083L22.9629 31.0645L23.043 30.9912L23.1631 30.8936L23.291 30.8076L23.4287 30.7324L23.5732 30.6699L23.7246 30.6191L23.8779 30.583L24.0811 30.5547L24.2949 30.5439L24.5664 30.5557L24.8984 30.6025L25.2451 30.6836L25.6553 30.8184L26.0752 30.998L26.2256 31.0645L26.2725 30.2441L26.2549 29.2793L26.1641 27.9375L26.0029 26.7705L25.792 25.7305L25.5068 24.7744L25.1982 24.0049L25.0234 23.6445L24.834 23.3008L24.5645 22.8877L24.2617 22.5146L23.9873 22.2344L23.6934 21.9854L23.3828 21.7666L23.0566 21.5811L22.7168 21.4287L22.3662 21.3125L22.0781 21.2451L21.7842 21.2012L21.5195 21.1846L21.4131 21.1855ZM41.2129 21.2002L40.8457 21.2568L40.4893 21.3496L40.1445 21.4766L39.8125 21.6367L39.4961 21.8301L39.1943 22.0537L38.9092 22.3086L38.5928 22.6533L38.3975 22.9062L38.1729 23.248L37.8506 23.8467L37.5381 24.584L37.251 25.4766L37.043 26.3584L36.8867 27.3047L36.7832 28.2725L36.7188 29.3555L36.708 31.0615L36.7852 31.0498L36.8984 30.998L37.3721 30.7988L37.7812 30.6699L38.125 30.5938L38.4551 30.5518L38.7227 30.5449L38.9346 30.5586L39.0967 30.583L39.25 30.6191L39.4053 30.6709L39.5518 30.7344L39.6895 30.8105L39.8193 30.8994L39.9414 31.001L40.0098 31.0625L40.0156 30.918L40.0342 30.4766L40.3047 27.377L40.7959 24.457L41.5127 21.4463L41.5596 21.2695L41.5791 21.1914L41.3818 21.1865L41.2129 21.2002ZM46.7734 21.4258L47.0742 21.6416L47.3672 21.8145L47.5811 21.9199L47.8174 22.0156L47.9023 22.0508L47.917 22.0576L47.9658 22.2129L48.0635 22.501L48.2412 22.8955L48.4736 23.3105L48.5527 23.4395L48.4727 23.4316L48.2627 23.4023L48.0791 23.3604L47.9053 23.3027L47.7578 23.2393L47.6807 23.1982L47.6074 23.1553L47.5449 23.124L46.7275 23.5859L44.8672 24.6719L42.2393 26.2002L42.3096 25.8555L42.4482 25.2422L42.7627 24.0137L44.7354 22.8418L46.6836 21.7041L46.6865 21.5312L46.6895 21.3594L46.7734 21.4258ZM16.2793 21.7041L18.2441 22.8516L20.2168 24.0098L20.7295 26.1523L19.957 25.7549L18.0869 24.667L15.4258 23.1201L15.3535 23.1572L15.2197 23.2324L15.0742 23.2969L14.9014 23.3555L14.7188 23.3994L14.6064 23.418L14.4912 23.4316L14.4111 23.4395L14.4902 23.3105L14.7451 22.8506L14.8916 22.5225L14.9971 22.2129L15.04 22.0635L15.1465 22.0156L15.4131 21.9062L15.7002 21.7568L15.9619 21.5918L16.2793 21.3555V21.7041ZM45.3467 17.0732L45.5215 17.2246L47.3242 18.8799L47.9297 19.5059L48.04 19.6445L48.1445 19.7939L48.4473 20.2988L48.624 20.666L48.7246 20.9395L48.7734 21.1309L48.79 21.2305L48.7969 21.3438L49.0439 21.4883L49.2637 21.5635L49.5381 21.6846L49.7998 21.8311L50.0488 22L50.2227 22.1387L50.4111 22.3105L50.583 22.4951L50.7832 22.7549L51.0059 23.1064L51.2725 23.6338L51.5674 24.3867L51.8438 25.333L51.9463 25.7754L52 26.0547L51.8896 25.9863L51.7529 25.8623L50.8213 25.0205L49.5322 23.8174L49.3184 23.5713L49.1426 23.333L48.8389 22.8467L48.6436 22.459L48.5293 22.1699L48.4727 21.9668L48.4443 21.7881L48.4414 21.7197V21.6328L48.082 21.5312L47.8145 21.4258L47.5605 21.2969L47.3799 21.1875L47.2012 21.0635L46.9326 20.8457L46.7363 20.6533L46.5566 20.4424L46.4043 20.2305L46.2559 19.9912L46.002 19.502L45.7158 18.7979L45.5547 18.3076L45.3955 17.7285L45.2441 17.0352L45.2412 17.0156L45.3467 17.0732ZM17.791 17.1436L17.5986 17.877L17.3672 18.5908L17.0283 19.4102L16.7441 19.9482L16.499 20.3223L16.2705 20.6074L16.1514 20.7324L16.0293 20.8477L15.7607 21.0654L15.5117 21.2334L15.2529 21.376L14.9834 21.4932L14.7959 21.5586L14.5684 21.6211L14.5225 21.7197L14.5176 21.8008L14.5029 21.9082L14.4648 22.0664L14.3828 22.3086L14.2803 22.5469L14.1514 22.7969L13.9258 23.1758L13.7227 23.4697L13.1133 24.1162L12.1426 25.0352L11 26.0371L11.0166 25.7773L11.1191 25.333L11.4209 24.3135L11.7197 23.5713L11.9893 23.0527L12.2129 22.709L12.3799 22.4951L12.5527 22.3105L12.8047 22.0859L13.0488 21.9043L13.3047 21.748L13.499 21.6494L13.6992 21.5635L13.9189 21.4883L14.1348 21.4297L14.166 21.3438L14.1709 21.2539L14.1895 21.1309L14.2295 20.9678L14.3135 20.7295L14.4619 20.4014L14.6143 20.1221L14.8193 19.7949L14.9072 19.666L14.9736 19.5762L15.2402 19.2852L15.9268 18.6367L16.8857 17.8037L17.4609 17.3252L17.8027 17.0508L17.791 17.1436ZM14.2021 19.7402L13.9434 20.207L13.7959 20.5391L13.6934 20.8389L13.6562 20.9746L13.5381 21.041L13.2207 21.1758L12.9385 21.3262L12.7061 21.4756L12.4551 21.6641L12.4121 21.4785L12.4277 21.2354L12.4473 21.1172L12.4688 21.0283L12.498 20.9316L12.5439 20.8154L12.6553 20.5908L12.7109 20.4971L12.7627 20.418L12.8379 20.3242L13.0098 20.1445L13.1025 20.0596L13.1855 19.9932L13.3291 19.8984L13.4805 19.8164L13.6377 19.749L13.8018 19.6943L13.9697 19.6543L14.0771 19.6367L14.1865 19.625L14.2773 19.6172L14.2021 19.7402ZM48.8027 19.626L49.0215 19.6611L49.2061 19.709L49.3818 19.7715L49.5488 19.8506L49.6562 19.9121L49.7783 19.9932L49.8604 20.0596L50.0293 20.2197L50.126 20.3242L50.2002 20.418L50.2705 20.5264L50.3887 20.75L50.4326 20.8477L50.4648 20.9316L50.5137 21.1074L50.5342 21.2256L50.5449 21.334L50.5508 21.4785L50.5088 21.6641L50.1943 21.4336L49.8955 21.2539L49.6758 21.1445L49.4258 21.041L49.3477 21.0098L49.2695 20.8389L49.1924 20.6025L49.042 20.2539L48.9121 20L48.7627 19.7422L48.7285 19.6201L48.8027 19.626Z" fill="#1A1B15"></path>
</svg><style>@media (prefers-color-scheme: light) { :root { filter: none; } }
@media (prefers-color-scheme: dark) { :root { filter: none; } }
</style></svg>