<svg width="167" height="84" viewBox="0 0 167 84" fill="none" xmlns="http://www.w3.org/2000/svg">
<path d="M124.442 84C106.03 84 95.9019 84 89.1388 77.2547C86.2504 74.3707 84.4777 70.708 83.5 65.5526C82.5311 70.7343 80.7584 74.3707 77.87 77.2547C71.1155 84 60.9705 84 42.5578 84C24.145 84 14.0177 84 7.25454 77.2547C0.491436 70.5094 0.5 60.3875 0.5 41.9996C0.5 23.6125 0.500086 13.4989 7.25454 6.74504C14.0091 -0.00883564 24.145 6.01725e-08 42.5578 6.01725e-08C60.9705 6.01725e-08 71.0981 -0.00017315 77.87 6.74504C80.7496 9.62971 82.5311 13.2917 83.5 18.4478C84.4777 13.2658 86.2504 9.62971 89.1388 6.74504C95.8932 -0.00017315 106.03 6.01725e-08 124.442 6.01725e-08C142.855 6.01725e-08 152.982 -0.00017315 159.754 6.74504C166.526 13.4903 166.5 23.6125 166.5 41.9996C166.5 60.3875 166.5 70.5015 159.754 77.2547C153.009 84.0088 142.855 84 124.442 84Z" fill="black"/>
<path d="M41.3561 32.7065C41.3561 33.795 40.8804 34.6761 39.1679 34.6761C37.4555 34.6761 36.9798 33.8125 36.9798 32.7065C36.9798 31.6014 37.542 30.7378 39.1679 30.7378C40.7939 30.7378 41.3561 31.6014 41.3561 32.7065Z" fill="white"/>
<path d="M40.4214 47.4152L36.6334 50.006L40.3868 36.7744H33.5718L32.6118 39.4353H36.5987L34.0041 48.935C33.8363 49.4907 33.845 50.0857 34.0294 50.636C34.2137 51.1864 34.5644 51.6668 35.0333 52.0097C35.5218 52.3536 36.105 52.5382 36.7027 52.5382C37.3003 52.5382 37.8833 52.3536 38.3718 52.0097L41.9002 49.6175C41.5371 49.0217 40.8278 47.9769 40.4214 47.4152Z" fill="white"/>
<path d="M15.4528 31.792H21.7577C24.4128 31.792 26.8602 32.6556 28.1402 34.4345C29.4202 36.2142 30.0601 38.7534 30.0601 42.1475C30.0601 45.5416 29.4202 48.1071 28.1402 49.8684C26.8602 51.6307 24.8969 52.5118 22.2419 52.5118H15.4528V31.792ZM22.0343 49.7739C22.6833 49.8203 23.3337 49.7048 23.9269 49.4379C24.5203 49.1711 25.038 48.7607 25.4333 48.2453C26.2574 46.9425 26.6477 45.4121 26.5488 43.8747V40.4203C26.6465 38.8794 26.2564 37.3482 25.4333 36.041C25.038 35.5256 24.5203 35.1152 23.9269 34.8483C23.3337 34.5815 22.6833 34.466 22.0343 34.5123H18.7567V49.7652L22.0343 49.7739Z" fill="white"/>
<path d="M59.7331 52.4509C60.7373 52.4771 61.733 52.2619 62.6364 51.8235C63.5398 51.3843 64.3235 50.7341 64.922 49.9283L64.9997 49.8075V49.9545C65.2426 51.5698 66.1591 52.2951 67.9755 52.2951C68.3861 52.3004 68.7976 52.2689 69.203 52.1998V49.0822H68.6675C68.0358 49.0822 67.716 48.7541 67.716 48.0891V41.6027C67.716 38.3819 65.4934 36.421 61.7653 36.421C60.5672 36.3983 59.3766 36.6162 58.264 37.0615C57.1513 37.5069 56.1395 38.1693 55.2878 39.0119L57.3461 41.2659C57.8816 40.6779 58.5327 40.2054 59.2587 39.8781C59.9847 39.5518 60.7704 39.3768 61.5667 39.3663C63.3485 39.3663 64.4982 40.1091 64.4982 41.2492C64.4982 42.3885 63.1667 42.6046 61.2726 42.8636C59.7946 42.9756 58.3538 43.3807 57.0346 44.0562C56.3555 44.4307 55.7962 44.989 55.4214 45.6679C55.0464 46.3461 54.8711 47.1169 54.9158 47.8904C54.9245 50.637 56.8618 52.4509 59.7331 52.4509ZM61.5407 45.3083H61.6614C62.5849 45.227 63.4865 44.9837 64.3252 44.5908L64.4117 44.5392V46.2664C64.4117 48.1319 62.6827 49.6439 60.4769 49.6439C60.198 49.6833 59.9139 49.6605 59.6447 49.5783C59.3753 49.496 59.1275 49.3552 58.9187 49.167C58.7099 48.978 58.5453 48.7462 58.4364 48.4863C58.3276 48.2273 58.2772 47.9473 58.2889 47.6656C58.2889 45.9042 59.8629 45.6102 61.5407 45.3083Z" fill="white"/>
<path d="M52.1576 32.7065C52.1576 33.795 51.6732 34.6761 49.9694 34.6761C48.2657 34.6761 47.7814 33.8125 47.7814 32.7065C47.7814 31.6014 48.3348 30.7378 49.9694 30.7378C51.604 30.7378 52.1576 31.6014 52.1576 32.7065Z" fill="white"/>
<path d="M51.0073 47.5452L47.4615 50.0241L51.2235 36.7925H44.4779L43.5178 39.4524H47.4356L44.841 48.9531C44.6727 49.5096 44.6821 50.1046 44.8681 50.6558C45.054 51.2071 45.4074 51.6866 45.8789 52.0278C46.3673 52.3717 46.9503 52.5563 47.548 52.5563C48.1456 52.5563 48.7287 52.3717 49.2172 52.0278L52.4865 49.7642C52.1232 49.1605 51.4226 48.1149 51.0073 47.5452Z" fill="white"/>
<path d="M128.888 39.5117V47.846C128.852 48.0963 128.877 48.35 128.955 48.5897C129.034 48.8295 129.166 49.0474 129.342 49.2285C129.517 49.4087 129.732 49.547 129.97 49.6327C130.207 49.7176 130.461 49.7474 130.711 49.7202H133.687V52.4843H130.435C127.148 52.4843 125.739 50.7571 125.739 47.846V39.5117H122.652V36.8517H125.73L126.145 32.6807H128.861V36.8517H133.661V39.5117H128.888Z" fill="white"/>
<path d="M152.334 36.8179L145.492 54.6441C145.247 55.5488 144.699 56.3415 143.938 56.8919C143.178 57.4423 142.253 57.7153 141.315 57.6672H138.132V54.903H140.9C141.234 54.9363 141.569 54.8576 141.852 54.6791C142.136 54.5006 142.352 54.2337 142.465 53.9187L142.933 52.7182L136.307 36.8179H139.768L144.567 49.1167L148.951 36.8179H152.334Z" fill="white"/>
<path d="M116.192 36.8013H119.322V52.433H116.192V36.8013Z" fill="white"/>
<path d="M119.945 32.7235C119.945 33.8032 119.461 34.6844 117.757 34.6844C116.053 34.6844 115.569 33.8207 115.569 32.7235C115.569 31.6263 116.131 30.7539 117.757 30.7539C119.383 30.7539 119.945 31.6175 119.945 32.7235Z" fill="white"/>
<path d="M110.06 46.6388C109.308 48.5988 108.245 49.5841 105.961 49.5841C102.181 49.5841 100.555 46.7683 100.555 42.1475C100.555 37.5267 102.285 34.711 105.961 34.711C108.245 34.711 109.298 35.6962 110.051 37.6474L113.191 36.6202C111.937 33.5105 109.731 31.792 106.012 31.792C100.322 31.792 97.0963 35.9893 97.0963 42.1563C97.0963 48.3223 100.166 52.5196 106.012 52.5196C107.573 52.6106 109.12 52.1871 110.417 51.3148C111.714 50.4433 112.688 49.1702 113.191 47.6923L110.06 46.6388Z" fill="white"/>
</svg>
