<svg width="209" height="54" viewBox="0 0 209 54" fill="none" xmlns="http://www.w3.org/2000/svg">
<g clip-path="url(#clip0_618_1095)">
<path fill-rule="evenodd" clip-rule="evenodd" d="M40.4794 53.0508L33.9592 46.5668L62.2809 18.4023V31.3611L40.4794 53.0508Z" fill="#FFCC04"/>
<path fill-rule="evenodd" clip-rule="evenodd" d="M53.0679 53.0506H62.281V36.3133L53.0679 45.4752V53.0506ZM9.87983 53.0506H0.666748V36.3133L9.87983 45.4752V53.0506ZM22.4775 53.0506L0.666748 31.3609V18.402L22.4775 40.0918L62.2902 0.5V13.4588L22.4775 53.0506Z" fill="#178ACB"/>
<path d="M142.506 41.6512H145.18V49.199L150.741 41.6512H153.268V53.2343H150.603V45.7048L145.042 53.2343H142.497V41.6512H142.506ZM139.592 41.6512V53.2343H136.899V48.4837H131.605V53.2343H128.912V41.6512H131.605V46.2184H136.899V41.6512H139.592ZM126.413 40.624C126.081 40.624 125.804 40.514 125.592 40.303C125.38 40.0921 125.269 39.817 125.269 39.4868C125.269 39.1567 125.38 38.8815 125.592 38.6706C125.804 38.4596 126.081 38.3496 126.413 38.3496C126.745 38.3496 127.022 38.4596 127.243 38.6706C127.464 38.8815 127.575 39.1567 127.575 39.4868C127.575 39.817 127.464 40.0921 127.243 40.303C127.031 40.514 126.745 40.624 126.413 40.624ZM123.056 40.624C122.724 40.624 122.447 40.514 122.226 40.303C122.005 40.0921 121.894 39.817 121.894 39.4868C121.894 39.1567 122.005 38.8815 122.226 38.6706C122.447 38.4596 122.724 38.3496 123.056 38.3496C123.388 38.3496 123.665 38.4596 123.877 38.6706C124.089 38.8815 124.2 39.1567 124.2 39.4868C124.2 39.817 124.089 40.0921 123.877 40.303C123.665 40.514 123.388 40.624 123.056 40.624ZM123.388 41.6512H126.081V53.2343H123.388V41.6512ZM117.2 48.713L115.355 44.2741L113.511 48.713H117.2ZM118.048 50.749H112.644L111.611 53.2343H108.844L114.037 41.6512H116.702L121.912 53.2343H119.081L118.048 50.749ZM103.754 47.8509C104.565 47.8509 105.183 47.6766 105.598 47.3281C106.022 46.9796 106.234 46.4844 106.234 45.8516C106.234 45.2004 106.022 44.7052 105.598 44.3567C105.174 44.0082 104.556 43.8339 103.754 43.8339H101.559V47.8509H103.754ZM103.901 41.6512C104.934 41.6512 105.829 41.8254 106.585 42.1648C107.341 42.5041 107.931 42.9994 108.337 43.623C108.743 44.2466 108.955 44.9987 108.955 45.8607C108.955 46.7137 108.752 47.4565 108.337 48.0893C107.922 48.7221 107.341 49.2082 106.585 49.5475C105.829 49.8869 104.925 50.052 103.901 50.052H101.559V53.2435H98.8658V41.6512H103.901ZM91.5064 48.5662H89.6435V53.2343H86.969V41.6512H89.6435V46.3376H91.571L94.6328 41.6512H97.4825L93.6736 47.2456L97.6023 53.2343H94.5405L91.5064 48.5662ZM85.7148 41.6512L80.7532 50.8223C80.2828 51.7028 79.7018 52.3722 79.0286 52.8216C78.3646 53.271 77.6268 53.5003 76.8429 53.5003C76.2343 53.5003 75.5979 53.3719 74.9431 53.1059L75.5887 51.07C76.059 51.2167 76.4464 51.2809 76.7507 51.2809C77.0827 51.2809 77.387 51.1983 77.6453 51.0424C77.9127 50.8865 78.1341 50.6114 78.3738 50.2904L78.4753 50.162L73.8826 41.6604H76.7599L79.8586 47.8784L83.0495 41.6604H85.7148V41.6512ZM173.29 21.6398H175.974V29.1876L181.535 21.6398H184.062V33.2229H181.396V25.6934L175.835 33.2229H173.29V21.6398ZM165.94 28.5548H164.077V33.2229H161.402V21.6398H164.077V26.3262H166.004L169.066 21.6398H171.916L168.107 27.2342L172.036 33.2229H168.974L165.94 28.5548ZM155.85 21.6398H158.525V33.2229H155.85V21.6398ZM150.428 33.2229L150.409 26.2895L146.979 32.0032H145.78L142.349 26.4271V33.2321H139.822V21.6398H142.054L146.416 28.8391L150.714 21.6398H152.945L152.964 33.2229H150.428ZM131.374 31.1411C132.066 31.1411 132.684 30.9852 133.237 30.6733C133.791 30.3615 134.224 29.9213 134.547 29.3619C134.86 28.8024 135.017 28.1605 135.017 27.4451C135.017 26.7298 134.86 26.0878 134.547 25.5283C134.233 24.9689 133.791 24.5287 133.237 24.2169C132.684 23.9051 132.057 23.7491 131.374 23.7491C130.683 23.7491 130.065 23.9051 129.512 24.2169C128.958 24.5287 128.516 24.9689 128.202 25.5283C127.888 26.0878 127.732 26.7298 127.732 27.4451C127.732 28.1605 127.888 28.8024 128.202 29.3619C128.516 29.9213 128.949 30.3615 129.512 30.6733C130.065 30.976 130.683 31.1411 131.374 31.1411ZM131.374 33.4247C130.166 33.4247 129.078 33.1679 128.101 32.6451C127.132 32.1224 126.367 31.407 125.823 30.4991C125.279 29.5912 125.002 28.564 125.002 27.4268C125.002 26.2895 125.279 25.2716 125.823 24.3544C126.376 23.4465 127.132 22.7311 128.101 22.2084C129.069 21.6948 130.157 21.4288 131.374 21.4288C132.583 21.4288 133.671 21.6856 134.639 22.2084C135.607 22.7311 136.364 23.4373 136.917 24.3544C137.47 25.2624 137.747 26.2895 137.747 27.4268C137.747 28.564 137.47 29.5912 136.917 30.4991C136.364 31.407 135.598 32.1224 134.639 32.6451C133.671 33.1587 132.583 33.4247 131.374 33.4247ZM122.899 21.6398V33.2229H120.206V28.4723H114.913V33.2229H112.22V21.6398H114.913V26.207H120.206V21.6398H122.899ZM103.763 31.1411C104.455 31.1411 105.072 30.9852 105.626 30.6733C106.179 30.3615 106.613 29.9213 106.935 29.3619C107.249 28.8024 107.406 28.1605 107.406 27.4451C107.406 26.7298 107.249 26.0878 106.935 25.5283C106.622 24.9689 106.179 24.5287 105.626 24.2169C105.072 23.9051 104.445 23.7491 103.763 23.7491C103.071 23.7491 102.453 23.9051 101.9 24.2169C101.347 24.5287 100.904 24.9689 100.59 25.5283C100.277 26.0878 100.12 26.7298 100.12 27.4451C100.12 28.1605 100.277 28.8024 100.59 29.3619C100.904 29.9213 101.337 30.3615 101.9 30.6733C102.453 30.976 103.08 31.1411 103.763 31.1411ZM103.763 33.4247C102.555 33.4247 101.467 33.1679 100.489 32.6451C99.5206 32.1224 98.7551 31.407 98.211 30.4991C97.6669 29.5912 97.3902 28.564 97.3902 27.4268C97.3902 26.2895 97.6669 25.2716 98.211 24.3544C98.7644 23.4465 99.5206 22.7311 100.489 22.2084C101.457 21.6948 102.546 21.4288 103.763 21.4288C104.971 21.4288 106.059 21.6856 107.028 22.2084C107.996 22.7311 108.752 23.4373 109.305 24.3544C109.859 25.2624 110.135 26.2895 110.135 27.4268C110.135 28.564 109.859 29.5912 109.305 30.4991C108.752 31.407 107.987 32.1224 107.028 32.6451C106.068 33.1587 104.98 33.4247 103.763 33.4247ZM90.907 28.5548H89.0441V33.2229H86.3604V21.6398H89.0441V26.3262H90.9715L94.0333 21.6398H96.883L93.0742 27.2342L97.0029 33.2229H93.9411L90.907 28.5548ZM84.2116 31.0677V33.2229H75.1921V21.6398H83.9994V23.795H77.8758V26.3079H83.2801V28.3897H77.8758V31.0677H84.2116ZM202.294 11.1297C202.986 11.1297 203.604 10.9738 204.157 10.6619C204.71 10.3501 205.144 9.90995 205.467 9.35051C205.78 8.79107 205.937 8.14909 205.937 7.43374C205.937 6.71839 205.78 6.07641 205.467 5.51697C205.153 4.95753 204.72 4.51732 204.157 4.2055C203.604 3.89368 202.976 3.73777 202.294 3.73777C201.602 3.73777 200.984 3.89368 200.431 4.2055C199.878 4.51732 199.444 4.95753 199.122 5.51697C198.808 6.07641 198.651 6.71839 198.651 7.43374C198.651 8.14909 198.808 8.79107 199.122 9.35051C199.435 9.90995 199.869 10.3501 200.431 10.6619C200.984 10.9646 201.612 11.1297 202.294 11.1297ZM202.294 13.4133C201.086 13.4133 199.998 13.1565 199.02 12.6337C198.052 12.111 197.286 11.4048 196.742 10.4877C196.189 9.57978 195.921 8.55262 195.921 7.4154C195.921 6.27818 196.198 5.26018 196.742 4.34307C197.296 3.43512 198.052 2.71978 199.02 2.19702C199.988 1.67427 201.077 1.41748 202.294 1.41748C203.502 1.41748 204.59 1.67427 205.559 2.19702C206.527 2.71978 207.283 3.42595 207.837 4.34307C208.39 5.25101 208.667 6.27818 208.667 7.4154C208.667 8.55262 208.39 9.57061 207.837 10.4877C207.283 11.3956 206.518 12.111 205.559 12.6337C204.59 13.1473 203.502 13.4133 202.294 13.4133ZM189.982 11.2214C191.246 11.2214 191.882 10.7261 191.882 9.73569C191.882 8.77272 191.246 8.29583 189.982 8.29583H187.022V11.2214H189.982ZM187.022 6.42491H189.53C190.121 6.42491 190.563 6.30569 190.858 6.06724C191.153 5.82879 191.31 5.48029 191.31 5.01256C191.31 4.56317 191.153 4.21467 190.849 3.96705C190.545 3.7286 190.102 3.60021 189.53 3.60021H187.022V6.42491ZM192.408 7.16778C193.118 7.37871 193.662 7.71804 194.04 8.19494C194.418 8.67184 194.603 9.24962 194.603 9.94663C194.603 10.9738 194.215 11.7716 193.431 12.3494C192.647 12.9272 191.532 13.2115 190.074 13.2115H184.329V1.62841H189.752C191.107 1.62841 192.159 1.8852 192.915 2.40796C193.671 2.93071 194.049 3.6644 194.049 4.62737C194.049 5.20515 193.902 5.70957 193.616 6.14061C193.339 6.57165 192.933 6.92015 192.408 7.16778ZM182.641 3.81114H178.915V13.2115H176.25V3.81114H172.543V1.62841H182.641V3.81114ZM167.286 13.4133C166.096 13.4133 165.027 13.1565 164.068 12.6429C163.108 12.1293 162.352 11.414 161.808 10.506C161.255 9.59813 160.987 8.57096 160.987 7.4154C160.987 6.269 161.264 5.24184 161.808 4.32472C162.361 3.41678 163.108 2.70143 164.068 2.18785C165.027 1.67427 166.106 1.41748 167.305 1.41748C168.31 1.41748 169.223 1.59173 170.044 1.9494C170.855 2.29791 171.547 2.81149 172.1 3.47181L170.366 5.05842C169.582 4.15047 168.605 3.70109 167.434 3.70109C166.714 3.70109 166.069 3.857 165.506 4.16882C164.944 4.48063 164.501 4.92085 164.187 5.48029C163.874 6.03973 163.717 6.68171 163.717 7.39705C163.717 8.1124 163.874 8.75438 164.187 9.31382C164.501 9.87326 164.944 10.3134 165.506 10.6253C166.069 10.9371 166.714 11.093 167.434 11.093C168.596 11.093 169.573 10.6344 170.366 9.71735L172.1 11.3039C171.547 11.9734 170.855 12.487 170.034 12.8447C169.204 13.2299 168.291 13.4133 167.286 13.4133ZM154.624 7.8281C155.435 7.8281 156.053 7.65385 156.468 7.30534C156.893 6.95684 157.105 6.4616 157.105 5.82879C157.105 5.17764 156.893 4.6824 156.468 4.3339C156.044 3.98539 155.435 3.81114 154.624 3.81114H152.429V7.8281H154.624ZM154.771 1.62841C155.804 1.62841 156.699 1.80266 157.455 2.14199C158.211 2.48133 158.802 2.9674 159.207 3.60021C159.613 4.23301 159.825 4.97588 159.825 5.83796C159.825 6.69088 159.622 7.43374 159.207 8.06655C158.792 8.69936 158.211 9.18542 157.455 9.52476C156.699 9.86409 155.795 10.0291 154.771 10.0291H152.429V13.2207H149.736V1.62841H154.771ZM147.55 11.0563V13.2115H138.531V1.62841H147.338V3.78363H141.215V6.29652H146.619V8.37836H141.215V11.0563H147.55ZM136.834 3.81114H133.108V13.2115H130.443V3.81114H126.736V1.62841H136.834V3.81114ZM121.47 13.4133C120.28 13.4133 119.21 13.1565 118.251 12.6429C117.292 12.1293 116.536 11.414 115.992 10.506C115.438 9.59813 115.171 8.57096 115.171 7.4154C115.171 6.269 115.448 5.24184 115.992 4.32472C116.545 3.41678 117.292 2.70143 118.251 2.18785C119.21 1.67427 120.289 1.41748 121.488 1.41748C122.493 1.41748 123.406 1.59173 124.227 1.9494C125.039 2.29791 125.73 2.81149 126.284 3.47181L124.55 5.05842C123.766 4.15047 122.788 3.70109 121.617 3.70109C120.898 3.70109 120.252 3.857 119.69 4.16882C119.127 4.48063 118.685 4.92085 118.371 5.48029C118.057 6.03973 117.901 6.68171 117.901 7.39705C117.901 8.1124 118.057 8.75438 118.371 9.31382C118.685 9.87326 119.127 10.3134 119.69 10.6253C120.252 10.9371 120.898 11.093 121.617 11.093C122.779 11.093 123.757 10.6344 124.55 9.71735L126.284 11.3039C125.73 11.9734 125.039 12.487 124.218 12.8447C123.397 13.2299 122.484 13.4133 121.47 13.4133ZM110.394 1.62841H113.068V13.2115H110.394V1.62841ZM107.479 1.62841V13.2115H104.787V8.46091H99.4929V13.2115H96.8V1.62841H99.4929V6.19564H104.787V1.62841H107.479ZM91.2205 1.62841H93.895V13.2115H91.2205V1.62841ZM85.7978 13.2115L85.7794 6.27818L82.3487 11.9918H81.1497L77.7191 6.41574V13.2207H75.1921V1.62841H77.4239L81.7861 8.82775L86.0837 1.62841H88.3155L88.3339 13.2115H85.7978Z" fill="#495256"/>
</g>
<defs>
<clipPath id="clip0_618_1095">
<rect width="209" height="54" fill="white"/>
</clipPath>
</defs>
</svg>
