<svg width="261" height="48" viewBox="0 0 261 48" fill="none" xmlns="http://www.w3.org/2000/svg">
<path d="M79.4738 18.1149H75.9587V6.77755L71.9415 18.1149H68.4264L64.4092 6.77755V18.1149H60.894V1.88184H66.1666L70.435 13.4769L74.4522 1.88184H79.4738V18.1149Z" fill="#4E4634"/>
<path d="M83.239 0.847168H86.7541V3.68153H83.239V0.847168ZM83.4901 5.22754H86.7541V17.8533H83.4901V5.22754Z" fill="#4E4634"/>
<path d="M101.819 5.22656V17.8524H98.3044V12.9566H93.5339V17.8524H90.2698V5.22656H93.5339V9.86459H98.3044V5.22656H101.819Z" fill="#4E4634"/>
<path d="M105.083 0.847168H108.599V3.68153H105.083V0.847168ZM105.335 5.22754H108.599V17.8533H105.335V5.22754Z" fill="#4E4634"/>
<path d="M111.361 11.6683C111.361 7.80325 113.872 5.22656 117.638 5.22656C120.4 5.22656 122.659 6.5149 123.413 9.0916L120.4 10.1223C119.898 8.83393 119.144 8.06092 117.889 8.06092C116.131 8.06092 114.876 9.60694 114.876 11.926C114.876 14.245 116.131 15.7909 117.889 15.7909C119.144 15.7909 120.149 15.018 120.4 13.7296L123.413 14.5027C122.659 16.8217 120.651 18.3676 117.638 18.3676C113.872 18.1099 111.361 15.5334 111.361 11.6683Z" fill="#4E4634"/>
<path d="M135.966 8.31859H131.697V17.8524H128.433V8.31859H124.165V5.22656H135.966V8.31859Z" fill="#4E4634"/>
<path d="M142.996 15.5369C144.503 15.5369 145.507 15.0215 146.26 13.9909L148.269 16.0523C147.013 17.3406 145.256 18.3713 142.745 18.3713C138.477 18.3713 136.217 15.5369 136.217 11.9295C136.217 8.06449 138.728 5.48779 142.494 5.48779C146.26 5.48779 148.52 8.06449 148.52 11.9295C148.52 12.1872 148.52 12.4449 148.52 12.9602H139.481C139.983 14.5062 141.238 15.5369 142.996 15.5369ZM139.732 10.3835H145.507C145.256 8.8375 144.251 7.80682 142.745 7.80682C141.238 7.80682 140.234 8.8375 139.732 10.3835Z" fill="#4E4634"/>
<path d="M163.836 11.6716C163.836 15.5365 161.576 18.1132 158.564 18.1132C157.056 18.1132 155.801 17.598 154.797 16.3096V21.9783H151.533V5.22984H154.546L154.797 7.03351C155.801 5.74516 157.056 4.97217 158.815 4.97217C161.576 5.22984 163.836 7.80652 163.836 11.6716ZM160.321 11.6716C160.321 9.35254 159.317 7.80652 157.307 7.80652C155.55 7.80652 154.296 9.35254 154.296 11.6716C154.296 13.9906 155.299 15.5365 157.307 15.5365C159.317 15.5365 160.321 13.9906 160.321 11.6716Z" fill="#4E4634"/>
<path d="M165.343 11.6683C165.343 7.80325 167.853 5.22656 171.619 5.22656C174.382 5.22656 176.642 6.5149 177.395 9.0916L174.382 10.1223C173.88 8.83393 173.127 8.06092 171.87 8.06092C170.113 8.06092 168.859 9.60694 168.859 11.926C168.859 14.245 170.113 15.7909 171.87 15.7909C173.127 15.7909 174.131 15.018 174.382 13.7296L177.395 14.7603C176.642 17.0793 174.633 18.6253 171.619 18.6253C167.853 18.1099 165.343 15.5334 165.343 11.6683Z" fill="#4E4634"/>
<path d="M189.948 8.31859H185.68V17.8524H182.416V8.31859H178.148V5.22656H189.948V8.31859Z" fill="#4E4634"/>
<path d="M202.753 14.5026C202.753 16.8216 200.996 18.1099 198.234 18.1099H191.958V5.22656H197.732C200.745 5.22656 202.502 6.25723 202.502 8.57626C202.502 9.86459 201.749 10.8953 200.745 11.4106C202 11.926 202.753 12.9566 202.753 14.5026ZM195.221 10.3799H197.732C198.736 10.3799 199.238 10.1223 199.238 9.0916C199.238 8.31859 198.736 7.80325 197.732 7.80325H194.97V10.3799H195.221ZM199.489 13.9873C199.489 13.2143 198.987 12.4413 197.732 12.4413H194.97V15.2757H197.732C198.987 15.5332 199.489 15.018 199.489 13.9873Z" fill="#4E4634"/>
<path d="M204.259 11.6683C204.259 7.80325 206.77 5.22656 210.788 5.22656C214.805 5.22656 217.316 7.80325 217.316 11.6683C217.316 15.5332 214.805 18.1099 210.788 18.1099C207.021 18.1099 204.259 15.5332 204.259 11.6683ZM213.801 11.6683C213.801 9.34925 212.544 7.80325 210.788 7.80325C209.031 7.80325 207.774 9.0916 207.774 11.6683C207.774 14.245 209.031 15.5332 210.788 15.5332C212.544 15.5332 213.801 13.9873 213.801 11.6683Z" fill="#4E4634"/>
<path d="M59.6377 37.6955C59.6377 33.8306 62.1484 31.2539 66.1657 31.2539C70.1829 31.2539 72.6938 33.8306 72.6938 37.6955C72.6938 41.5606 70.1829 44.1373 66.1657 44.1373C62.1484 44.1373 59.6377 41.5606 59.6377 37.6955ZM69.1786 37.6955C69.1786 35.3765 67.9233 33.8306 66.1657 33.8306C64.157 33.8306 63.1528 35.119 63.1528 37.6955C63.1528 40.0147 64.4082 41.5606 66.1657 41.5606C67.9233 41.303 69.1786 40.0147 69.1786 37.6955Z" fill="#4E4634"/>
<path d="M86.7544 38.2049C86.7544 41.5546 84.2435 44.1313 80.4774 44.1313C76.46 44.1313 74.2004 41.2969 74.2004 36.6589C74.2004 32.0209 75.9579 29.1865 79.7242 28.4135L82.737 27.6404C83.2393 27.6404 83.4903 27.3829 83.4903 26.8675V26.3521L86.5032 26.8675V27.3829C86.2521 29.1865 85.2479 30.2171 83.4903 30.4748L79.7242 31.2478C77.4644 31.7632 76.7112 32.7938 76.46 34.5976C77.4644 33.3092 78.9709 32.5361 80.9795 32.5361C84.4946 32.7938 86.7544 35.1128 86.7544 38.2049ZM83.4903 38.2049C83.4903 36.1436 82.486 35.1128 80.7284 35.1128C78.9709 35.1128 77.9665 36.1436 77.9665 38.2049C77.9665 40.0085 79.2219 41.2969 80.7284 41.2969C82.2349 41.2969 83.4903 40.2662 83.4903 38.2049Z" fill="#4E4634"/>
<path d="M88.261 37.6955C88.261 33.8306 90.7717 31.2539 94.7889 31.2539C98.8063 31.2539 101.317 33.8306 101.317 37.6955C101.317 41.5606 98.8063 44.1373 94.7889 44.1373C90.7717 44.1373 88.261 41.5606 88.261 37.6955ZM97.8019 37.6955C97.8019 35.3765 96.5466 33.8306 94.7889 33.8306C92.7803 33.8306 91.7761 35.119 91.7761 37.6955C91.7761 40.0147 93.0315 41.5606 94.7889 41.5606C96.5466 41.303 97.8019 40.0147 97.8019 37.6955Z" fill="#4E4634"/>
<path d="M116.13 37.692C116.13 41.5571 113.871 44.1338 110.858 44.1338C109.351 44.1338 108.096 43.6184 107.092 42.33V47.9988H103.827V30.9926H106.84L107.092 32.7963C108.096 31.508 109.351 30.7349 111.109 30.7349C113.871 30.9926 116.13 33.5693 116.13 37.692ZM112.615 37.692C112.615 35.373 111.611 33.827 109.602 33.827C107.845 33.827 106.589 35.373 106.589 37.692C106.589 40.011 107.594 41.5571 109.602 41.5571C111.611 41.2994 112.615 40.011 112.615 37.692Z" fill="#4E4634"/>
<path d="M117.638 37.6955C117.638 33.8306 120.148 31.2539 124.166 31.2539C128.183 31.2539 130.694 33.8306 130.694 37.6955C130.694 41.5606 128.183 44.1373 124.166 44.1373C120.148 44.1373 117.638 41.5606 117.638 37.6955ZM127.179 37.6955C127.179 35.3765 125.923 33.8306 124.166 33.8306C122.408 33.8306 121.153 35.119 121.153 37.6955C121.153 40.0147 122.408 41.5606 124.166 41.5606C125.923 41.5606 127.179 40.0147 127.179 37.6955Z" fill="#4E4634"/>
<path d="M144.502 31.2539V43.8797H141.238V38.9839H136.468V43.8797H133.204V31.2539H136.468V35.8919H141.238V31.2539H144.502Z" fill="#4E4634"/>
<path d="M159.566 31.2539V43.8797H156.303V36.1496L151.281 43.8797H148.017V31.2539H151.03V38.9839L156.052 31.2539H159.566Z" fill="#4E4634"/>
<path d="M183.169 27.9023L178.399 40.0127C177.395 42.5894 176.138 44.393 173.378 44.393C170.866 44.393 169.36 42.5894 169.36 40.5281L172.121 39.755C172.121 41.0434 172.623 41.5588 173.629 41.5588C174.131 41.5588 174.382 41.5588 174.884 41.0434L167.853 28.1599H171.87L176.389 37.436L179.654 28.1599H183.169V27.9023Z" fill="#4E4634"/>
<path d="M188.943 38.4686L187.437 40.0147V43.8797H184.173V31.2539H187.437V36.4072L192.207 31.2539H196.224L191.203 36.1496L196.224 43.8797H192.458L188.943 38.4686Z" fill="#4E4634"/>
<path d="M210.537 37.692C210.537 41.5571 208.276 44.1338 205.264 44.1338C203.757 44.1338 202.502 43.6184 201.498 42.33V47.9988H198.234V30.9926H201.247L201.498 32.7963C202.502 31.508 203.757 30.7349 205.515 30.7349C208.527 30.9926 210.537 33.5693 210.537 37.692ZM207.021 37.692C207.021 35.373 206.017 33.827 204.008 33.827C202.251 33.827 200.996 35.373 200.996 37.692C200.996 40.011 202 41.5571 204.008 41.5571C206.017 41.2994 207.021 40.011 207.021 37.692Z" fill="#4E4634"/>
<path d="M223.843 41.042V43.8764C223.592 43.8764 223.341 43.8764 222.588 43.8764C221.081 43.8764 220.328 43.361 220.077 42.0727C219.324 43.361 217.566 44.134 215.809 44.134C213.297 44.134 211.792 42.5881 211.792 40.5266C211.792 37.177 214.805 36.6616 217.064 36.404C218.571 36.1463 219.575 36.1463 219.575 35.3734C219.575 34.6003 218.822 34.085 217.315 34.085C216.06 34.085 214.805 34.6003 214.05 35.6309L212.042 33.5696C213.548 32.0236 215.307 31.5083 217.566 31.5083C220.83 31.5083 222.588 33.0542 222.588 35.8886V40.7843C222.588 41.2997 222.839 41.5574 223.341 41.5574H223.843V41.042ZM219.575 38.9807V37.9499C219.073 38.2076 218.32 38.4653 217.566 38.4653C216.311 38.723 215.056 38.9807 215.056 40.0114C215.056 40.7843 215.558 41.2997 216.562 41.2997C218.32 41.5574 219.575 40.2691 219.575 38.9807Z" fill="#4E4634"/>
<path d="M224.096 26.8711H227.358V29.7055H224.096V26.8711ZM226.606 31.2514H229.87V43.8772H226.606V31.2514ZM228.866 26.8711H232.13V29.7055H228.866V26.8711Z" fill="#4E4634"/>
<path d="M244.934 31.2539V43.8797H241.672V38.9839H236.9V43.8797H233.636V31.2539H236.9V35.8919H241.672V31.2539H244.934Z" fill="#4E4634"/>
<path d="M259.747 31.2539V43.8797H256.484V36.1496L251.462 43.8797H248.197V31.2539H251.462V38.9839L256.484 31.2539H259.747Z" fill="#4E4634"/>
<path d="M1.25049 17.4486V0H39.9452V17.4486C39.9452 29.1811 34.0825 40.0113 20.5979 45.4264C7.11334 40.0113 1.25049 29.1811 1.25049 17.4486ZM17.3733 32.1895C17.9596 33.9946 19.1322 36.1005 20.5979 37.9054C22.0635 36.1005 22.943 34.2954 23.8225 32.1895H33.4962V7.2201C28.8058 9.32595 27.6333 13.8385 27.6333 18.6519C27.6333 21.3594 27.9265 24.0671 28.2195 26.7746H23.2361L23.5293 19.8552C23.5293 17.4486 23.8225 14.741 23.8225 12.3343C24.1156 8.72429 22.943 5.41507 20.5979 2.70753C18.2528 5.41507 17.0801 8.72429 17.3733 12.3343C17.3733 14.741 17.6664 17.4486 17.6664 19.8552L17.9596 26.7746H12.683C12.9762 24.3678 13.2693 21.3594 13.2693 18.6519C13.2693 13.8385 12.0968 9.32595 7.69963 7.2201V32.1895H17.3733Z" fill="#4E4634"/>
</svg>
