<svg width="40" height="75" viewBox="0 0 40 75" fill="none" xmlns="http://www.w3.org/2000/svg">
<g clip-path="url(#clip0_689_8062)">
<path d="M40 0H0V55.2375L20 75L40 55.2375V0Z" fill="#001B29"/>
<path d="M39.2979 0.69375V54.9563L20 74.025L0.702087 54.9563V0.69375H39.2979ZM40 0H0V55.2375L20 75L40 55.2375V0Z" fill="#F29100"/>
<path d="M20.0006 68.6625L4.47875 53.325L36.9266 20.9062V2.90625H3.03662V38.7562L24.251 17.4375V6.05625L4.42182 25.9688V4.275H35.5414V10.9125L3.03662 43.3688V53.8313L20.0006 70.5938L36.9266 53.8875V25.5L15.6742 46.875V58.275L35.5414 38.3063V53.3062L20.0006 68.6625Z" fill="#F29100"/>
</g>
<defs>
<clipPath id="clip0_689_8062">
<rect width="40" height="75" fill="white"/>
</clipPath>
</defs>
</svg>
